<?xml version="1.0" encoding="UTF-8"?>
<svg version="1.1" xmlns="http://www.w3.org/2000/svg" width="48" height="48">
<path d="M0 0 C1.67334039 0.98879205 3.34151823 1.98648336 5 3 C7.7004039 2.35336433 7.7004039 2.35336433 10 1 C13.45739557 -0.72869779 17.21975568 -0.48966895 21 0 C23.87029869 1.79393668 25.49131638 2.98263276 27 6 C27.89880723 12.51635244 27.89880723 12.51635244 25.859375 15.8828125 C24.00361163 18.03585835 22.02546429 20.00501928 20 22 C19.0096198 23.06586031 18.02288247 24.13511268 17.0390625 25.20703125 C15.98573536 26.32680203 14.93104477 27.44529182 13.875 28.5625 C13.12138184 29.38669434 13.12138184 29.38669434 12.35253906 30.22753906 C10.8671875 31.75390625 10.8671875 31.75390625 8 34 C3.73643854 33.77877341 1.75396348 32.24252054 -1.171875 29.25390625 C-1.91824219 28.49916016 -2.66460937 27.74441406 -3.43359375 26.96679688 C-4.19800781 26.17337891 -4.96242188 25.37996094 -5.75 24.5625 C-6.52988281 23.77294922 -7.30976563 22.98339844 -8.11328125 22.16992188 C-15.35428723 14.78409577 -15.35428723 14.78409577 -15.29296875 8.0390625 C-14.83745033 4.86865433 -13.24684343 3.1807598 -11 1 C-7.56873653 -0.71563174 -3.76005987 -0.40543254 0 0 Z " fill="#E02B58" transform="translate(18,7)"/>
</svg>
