<?xml version="1.0" encoding="UTF-8"?>
<svg version="1.1" xmlns="http://www.w3.org/2000/svg" width="53" height="53">
<path d="M0 0 C1.43859375 -0.00773438 1.43859375 -0.00773438 2.90625 -0.015625 C5.5 0.25 5.5 0.25 8.5 2.25 C8.79296875 4.6328125 8.79296875 4.6328125 8.6875 7.375 C8.64689453 8.74011719 8.64689453 8.74011719 8.60546875 10.1328125 C8.57066406 10.83148438 8.53585938 11.53015625 8.5 12.25 C9.49902344 12.23839844 10.49804688 12.22679687 11.52734375 12.21484375 C12.81769531 12.20582031 14.10804687 12.19679688 15.4375 12.1875 C16.72527344 12.17589844 18.01304688 12.16429687 19.33984375 12.15234375 C22.5 12.25 22.5 12.25 23.5 13.25 C23.57258946 15.43639453 23.58373783 17.62500389 23.5625 19.8125 C23.55347656 21.01003906 23.54445312 22.20757813 23.53515625 23.44140625 C23.52355469 24.36824219 23.51195312 25.29507813 23.5 26.25 C24.16 26.25 24.82 26.25 25.5 26.25 C25.54254356 28.24954746 25.54080783 30.25041636 25.5 32.25 C23.8859075 33.8640925 22.13523592 33.37734318 19.90429688 33.37939453 C18.43772644 33.38412277 18.43772644 33.38412277 16.94152832 33.38894653 C15.87801147 33.3869223 14.81449463 33.38489807 13.71875 33.3828125 C12.09302063 33.38424759 12.09302063 33.38424759 10.43444824 33.38571167 C8.1377761 33.38639365 5.84110205 33.38453811 3.54443359 33.38037109 C0.01525572 33.37502312 -3.51379487 33.3803155 -7.04296875 33.38671875 C-9.26822945 33.38605797 -11.49349007 33.38477682 -13.71875 33.3828125 C-14.78226685 33.38483673 -15.84578369 33.38686096 -16.94152832 33.38894653 C-17.91924194 33.38579437 -18.89695557 33.38264221 -19.90429688 33.37939453 C-20.76953979 33.37859894 -21.63478271 33.37780334 -22.52624512 33.37698364 C-24.5 33.25 -24.5 33.25 -25.5 32.25 C-25.54080783 30.25041636 -25.54254356 28.24954746 -25.5 26.25 C-24.84 26.25 -24.18 26.25 -23.5 26.25 C-23.51160156 24.96222656 -23.52320313 23.67445312 -23.53515625 22.34765625 C-23.5445327 20.66927228 -23.55363305 18.99088674 -23.5625 17.3125 C-23.57506836 16.03729492 -23.57506836 16.03729492 -23.58789062 14.73632812 C-23.59111328 13.92744141 -23.59433594 13.11855469 -23.59765625 12.28515625 C-23.60289307 11.5362915 -23.60812988 10.78742676 -23.61352539 10.01586914 C-23.5 8.25 -23.5 8.25 -22.5 7.25 C-20.14686445 7.17728259 -17.79166332 7.16629132 -15.4375 7.1875 C-14.14714844 7.19652344 -12.85679688 7.20554687 -11.52734375 7.21484375 C-10.52832031 7.22644531 -9.52929688 7.23804688 -8.5 7.25 C-8.561875 6.46625 -8.62375 5.6825 -8.6875 4.875 C-8.5946875 3.575625 -8.5946875 3.575625 -8.5 2.25 C-5.14802157 0.01534771 -3.92208754 -0.02108649 0 0 Z " fill="#46608A" transform="translate(26.5,9.75)"/>
<path d="M0 0 C1.43859375 -0.00773438 1.43859375 -0.00773438 2.90625 -0.015625 C5.5 0.25 5.5 0.25 8.5 2.25 C8.828125 4.140625 8.828125 4.140625 8.75 6.5 C8.72421875 7.37914062 8.6984375 8.25828125 8.671875 9.1640625 C8.35427947 14.86634591 7.94657438 20.55617659 7.5 26.25 C2.55 26.25 -2.4 26.25 -7.5 26.25 C-7.74774708 22.29201657 -7.97400079 18.33484843 -8.1875 14.375 C-8.26033203 13.24707031 -8.33316406 12.11914062 -8.40820312 10.95703125 C-8.46298828 9.88066406 -8.51777344 8.80429687 -8.57421875 7.6953125 C-8.63182373 6.70031738 -8.68942871 5.70532227 -8.7487793 4.68017578 C-8.66668213 3.87821777 -8.58458496 3.07625977 -8.5 2.25 C-5.14802157 0.01534771 -3.92208754 -0.02108649 0 0 Z " fill="#FFBF01" transform="translate(26.5,9.75)"/>
<path d="M0 0 C3.61328125 0.03255208 7.2265625 0.06510417 10.83984375 0.09765625 C10.83984375 6.36765625 10.83984375 12.63765625 10.83984375 19.09765625 C5.88984375 19.09765625 0.93984375 19.09765625 -4.16015625 19.09765625 C-4.18699612 16.11843032 -4.20691662 13.1394433 -4.22265625 10.16015625 C-4.23103516 9.31001953 -4.23941406 8.45988281 -4.24804688 7.58398438 C-4.25126953 6.77509766 -4.25449219 5.96621094 -4.2578125 5.1328125 C-4.26304932 4.38394775 -4.26828613 3.63508301 -4.27368164 2.86352539 C-4.06953603 -0.31192666 -3.23150136 0.09986098 0 0 Z " fill="#5FBFFF" transform="translate(7.16015625,16.90234375)"/>
<path d="M0 0 C2.47923801 -0.02685095 4.9581884 -0.04676547 7.4375 -0.0625 C8.14455078 -0.07087891 8.85160156 -0.07925781 9.58007812 -0.08789062 C11.38693559 -0.09653588 13.19387603 -0.05220011 15 0 C16 1 16 1 16.09765625 3.94140625 C16.06510417 7.29427083 16.03255208 10.64713542 16 14 C10.72 14 5.44 14 0 14 C0 9.38 0 4.76 0 0 Z " fill="#C985F8" transform="translate(34,22)"/>
<path d="M0 0 C1.49080078 0.02707031 1.49080078 0.02707031 3.01171875 0.0546875 C3.77097656 0.07789063 4.53023437 0.10109375 5.3125 0.125 C5.01214844 0.65867187 4.71179687 1.19234375 4.40234375 1.7421875 C1.25185957 7.91500057 1.01396245 12.36413603 2.3125 19.125 C0.0025 19.125 -2.3075 19.125 -4.6875 19.125 C-5.3475 21.105 -6.0075 23.085 -6.6875 25.125 C-7.0175 25.125 -7.3475 25.125 -7.6875 25.125 C-7.94158976 21.33456819 -8.16153593 17.54291947 -8.375 13.75 C-8.44783203 12.66976563 -8.52066406 11.58953125 -8.59570312 10.4765625 C-8.65048828 9.4453125 -8.70527344 8.4140625 -8.76171875 7.3515625 C-8.81932373 6.39846191 -8.87692871 5.44536133 -8.9362793 4.46337891 C-8.85418213 3.69171387 -8.77208496 2.92004883 -8.6875 2.125 C-5.26655758 -0.15562828 -4.00562778 -0.09425007 0 0 Z " fill="#FFD710" transform="translate(26.6875,9.875)"/>
<path d="M0 0 C0.33 0 0.66 0 1 0 C1 6.27 1 12.54 1 19 C8.59 19 16.18 19 24 19 C24 19.33 24 19.66 24 20 C18.69378806 21.13374005 13.39913498 21.59497108 8 22.0625 C6.97575928 22.15192871 5.95151855 22.24135742 4.89624023 22.33349609 C-2.42788467 22.94157162 -9.64923066 23.25396132 -17 23 C-17 21.68 -17 20.36 -17 19 C-11.39 19 -5.78 19 0 19 C0 12.73 0 6.46 0 0 Z " fill="#5E7D9B" transform="translate(18,17)"/>
<path d="M0 0 C1.32 0.33 2.64 0.66 4 1 C4 5.29 4 9.58 4 14 C-0.62 14 -5.24 14 -10 14 C-9.34 12.68 -8.68 11.36 -8 10 C-6.02 10 -4.04 10 -2 10 C-2.04125 8.72125 -2.0825 7.4425 -2.125 6.125 C-2.1953125 3.9453125 -2.1953125 3.9453125 -2 2 C-1.34 1.34 -0.68 0.68 0 0 Z " fill="#B348F1" transform="translate(46,22)"/>
<path d="M0 0 C0.33 0 0.66 0 1 0 C1 5.61 1 11.22 1 17 C-3.62 17 -8.24 17 -13 17 C-12.01 15.68 -11.02 14.36 -10 13 C-6.3125 12.75 -6.3125 12.75 -3 13 C-3 12.34 -3 11.68 -3 11 C-3.99 10.67 -4.98 10.34 -6 10 C-5.34 9.34 -4.68 8.68 -4 8 C-2.98034573 5.67518826 -1.97940398 3.34205301 -1 1 C-0.67 0.67 -0.34 0.34 0 0 Z " fill="#099DFF" transform="translate(17,19)"/>
<path d="M0 0 C1.65 0 3.3 0 5 0 C5.625 1.875 5.625 1.875 6 4 C5.34 4.66 4.68 5.32 4 6 C4.66 6.33 5.32 6.66 6 7 C6 7.66 6 8.32 6 9 C4.02 9 2.04 9 0 9 C0.56371414 5.73045798 1.49962266 4.17424117 4 2 C2.68 1.34 1.36 0.68 0 0 Z " fill="#E1F3FF" transform="translate(8,23)"/>
<path d="M0 0 C0.99 0 1.98 0 3 0 C3.33 3.3 3.66 6.6 4 10 C2.35 10 0.7 10 -1 10 C-1 9.34 -1 8.68 -1 8 C-0.34 8 0.32 8 1 8 C1 6.02 1 4.04 1 2 C0.34 1.67 -0.32 1.34 -1 1 C-0.67 0.67 -0.34 0.34 0 0 Z " fill="#FFF4D4" transform="translate(25,19)"/>
</svg>
