<?xml version="1.0" encoding="UTF-8"?>
<svg version="1.1" xmlns="http://www.w3.org/2000/svg" width="16" height="16">
<path d="M0 0 C2.75 1.375 2.75 1.375 5.75 3.375 C5.42 7.335 5.09 11.295 4.75 15.375 C0.13 15.375 -4.49 15.375 -9.25 15.375 C-9.58 11.415 -9.91 7.455 -10.25 3.375 C-4.1212522 -0.7925485 -4.1212522 -0.7925485 0 0 Z " fill="#B2B7C1" transform="translate(10.25,0.625)"/>
<path d="M0 0 C2 2 2 2 2.1953125 4.1640625 C2.17210937 4.97617188 2.14890625 5.78828125 2.125 6.625 C2.10695313 7.44226562 2.08890625 8.25953125 2.0703125 9.1015625 C2.03550781 10.04128906 2.03550781 10.04128906 2 11 C1.01 11 0.02 11 -1 11 C-1 8.69 -1 6.38 -1 4 C-2.98 4 -4.96 4 -7 4 C-7 6.31 -7 8.62 -7 11 C-7.99 11 -8.98 11 -10 11 C-10.61822985 2.80845443 -10.61822985 2.80845443 -8.375 -0.125 C-5.19868478 -1.2952214 -3.22753103 -0.91212834 0 0 Z " fill="#D7EEFC" transform="translate(12,4)"/>
<path d="M0 0 C2.75 1.375 2.75 1.375 5.75 3.375 C5.42 4.365 5.09 5.355 4.75 6.375 C4.04875 5.859375 3.3475 5.34375 2.625 4.8125 C-0.92862104 3.03568948 -2.47391922 3.33055212 -6.25 4.375 C-8.53480253 5.34848627 -8.53480253 5.34848627 -10.25 6.375 C-10.25 5.385 -10.25 4.395 -10.25 3.375 C-4.1212522 -0.7925485 -4.1212522 -0.7925485 0 0 Z " fill="#D5686A" transform="translate(10.25,0.625)"/>
<path d="M0 0 C1.32 0 2.64 0 4 0 C4 1.98 4 3.96 4 6 C2.68 6 1.36 6 0 6 C0 4.02 0 2.04 0 0 Z " fill="#FEC39B" transform="translate(6,9)"/>
</svg>
