<?xml version="1.0" encoding="UTF-8"?>
<svg version="1.1" xmlns="http://www.w3.org/2000/svg" width="48" height="48">
<path d="M0 0 C4.8404001 2.60960701 8.06650639 6.09014417 9.796875 11.28125 C10.46163179 18.73524418 10.44121145 24.25616487 5.796875 30.28125 C0.39692227 35.28608423 -4.05234248 35.63143872 -11.1875 35.5625 C-16.73027207 35.04555753 -19.78938645 32.80659949 -23.578125 28.71875 C-27.13749657 23.37969265 -26.78151279 17.4828524 -26.203125 11.28125 C-24.60392 6.37933903 -21.45575292 3.11633528 -17.203125 0.28125 C-11.84906913 -1.50343529 -5.40672306 -1.76389547 0 0 Z " fill="#F7C523" transform="translate(32.203125,6.71875)"/>
<path d="M0 0 C1.65 0.33 3.3 0.66 5 1 C5 1.66 5 2.32 5 3 C5.598125 3.103125 6.19625 3.20625 6.8125 3.3125 C9.50141816 4.15758856 10.40984985 4.6526355 12 7 C12.55075556 9.67963762 12.77562991 12.26268493 13 15 C11.02 15.33 9.04 15.66 7 16 C8.32 16.66 9.64 17.32 11 18 C10.01958581 20.45103548 9.3486182 21.76758786 7.125 23.25 C3.98875431 24.35691024 1.47623112 24.13290171 -1.6875 23.25 C-4 22 -4 22 -4.8125 19.875 C-4.874375 19.25625 -4.93625 18.6375 -5 18 C-4.01 17.34 -3.02 16.68 -2 16 C-2.99 15.67 -3.98 15.34 -5 15 C-5 15.66 -5 16.32 -5 17 C-5.66 17 -6.32 17 -7 17 C-7.6261986 12.70606672 -7.88559935 9.35170427 -5.44140625 5.62109375 C-3.69583715 3.65776754 -1.91737225 1.79509085 0 0 Z " fill="#FCD646" transform="translate(21,8)"/>
<path d="M0 0 C3.63 0 7.26 0 11 0 C11 0.33 11 0.66 11 1 C9.205625 1.0309375 9.205625 1.0309375 7.375 1.0625 C3.83943478 1.5209303 2.02132498 2.40955908 -0.4375 5 C-3.5379417 9.04149718 -3.9773776 13.01176118 -4 18 C-3.34 18 -2.68 18 -2 18 C-2.33 17.01 -2.66 16.02 -3 15 C-1.02 15.66 0.96 16.32 3 17 C2.34 17.433125 1.68 17.86625 1 18.3125 C0.34 18.869375 -0.32 19.42625 -1 20 C-1 20.99 -1 21.98 -1 23 C3.93396878 24.09643751 8.06603122 24.09643751 13 23 C13.33 23.66 13.66 24.32 14 25 C8.68581107 27.02445293 4.47001793 27.82333931 -1 26 C-1.20970559 30.14093698 -1.20970559 30.14093698 0 34 C-3.87705056 33.42562214 -6.11543577 31.57271945 -9 29 C-10.45500399 26.08999203 -10.20897384 23.4910667 -10.25 20.25 C-10.27578125 19.03828125 -10.3015625 17.8265625 -10.328125 16.578125 C-9.78811083 10.68939907 -7.01439459 6.26529425 -3 2 C-2.01 2 -1.02 2 0 2 C0 1.34 0 0.68 0 0 Z " fill="#EBBA20" transform="translate(18,7)"/>
<path d="M0 0 C7.55818282 -0.44678913 12.79752221 -0.58444011 19 4 C21 6 21 6 21.125 9.125 C21.08375 10.07375 21.0425 11.0225 21 12 C20.67 12 20.34 12 20 12 C20 10.35 20 8.7 20 7 C19.443125 6.731875 18.88625 6.46375 18.3125 6.1875 C16 5 16 5 13.9375 3.4375 C9.48402357 1.25813919 4.90067903 1.24889613 0 1 C0 0.67 0 0.34 0 0 Z M0 1 C0 1.66 0 2.32 0 3 C-0.99 3 -1.98 3 -3 3 C-3.268125 3.556875 -3.53625 4.11375 -3.8125 4.6875 C-5.10128679 7.1972427 -6.53946726 9.5869459 -8 12 C-9.41634833 14.83269666 -9.3463005 17.47466438 -9.5625 20.625 C-9.64628906 21.81351563 -9.73007813 23.00203125 -9.81640625 24.2265625 C-9.87699219 25.14179688 -9.93757812 26.05703125 -10 27 C-13.12453226 22.31320161 -12.57564736 17.4864168 -12 12 C-10.19014108 6.48237604 -6.13219288 1 0 1 Z " fill="#F2B415" transform="translate(18,6)"/>
<path d="M0 0 C3.12453226 4.68679839 2.57564736 9.5135832 2 15 C0.40752215 19.85490545 -2.67734973 23.32407365 -7 26 C-10.3125 26.75 -10.3125 26.75 -13 27 C-12.29875 26.484375 -11.5975 25.96875 -10.875 25.4375 C-5.77623626 21.11463509 -1.32395341 16.75216241 0 10 C0.14068499 6.6587315 0.11886818 3.3415165 0 0 Z " fill="#F2B114" transform="translate(40,15)"/>
<path d="M0 0 C1.65 0.33 3.3 0.66 5 1 C5 1.66 5 2.32 5 3 C6.32 3.33 7.64 3.66 9 4 C5.61981469 5.04005702 2.5219721 5.08004482 -1 5 C-4.61593557 10.54702838 -4.61593557 10.54702838 -5 17 C-5.66 17 -6.32 17 -7 17 C-7.6261986 12.70606672 -7.88559935 9.35170427 -5.44140625 5.62109375 C-3.69583715 3.65776754 -1.91737225 1.79509085 0 0 Z " fill="#FED230" transform="translate(21,8)"/>
<path d="M0 0 C1.4540625 0.0309375 1.4540625 0.0309375 2.9375 0.0625 C3.2675 2.0425 3.5975 4.0225 3.9375 6.0625 C2.9475 6.7225 1.9575 7.3825 0.9375 8.0625 C0.2775 7.0725 -0.3825 6.0825 -1.0625 5.0625 C-2.7125 5.7225 -4.3625 6.3825 -6.0625 7.0625 C-3.83347902 0.07823427 -3.83347902 0.07823427 0 0 Z " fill="#FFD847" transform="translate(23.0625,11.9375)"/>
<path d="M0 0 C1.2065625 0.0309375 1.2065625 0.0309375 2.4375 0.0625 C3.0975 1.7125 3.7575 3.3625 4.4375 5.0625 C2.4575 6.0525 2.4575 6.0525 0.4375 7.0625 C-2.5625 5.0625 -2.5625 5.0625 -3.3125 3 C-3.395 2.360625 -3.4775 1.72125 -3.5625 1.0625 C-2.5625 0.0625 -2.5625 0.0625 0 0 Z " fill="#F6CD32" transform="translate(19.5625,24.9375)"/>
<path d="M0 0 C1.67004829 0.31595508 3.33637583 0.65179959 5 1 C8.27275026 1 10.846632 0.70074844 14 0 C14.33 0.66 14.66 1.32 15 2 C10.84551063 3.58266262 7.45237986 4.48395433 3 4 C0.625 2.5 0.625 2.5 -1 1 C-0.67 0.67 -0.34 0.34 0 0 Z " fill="#2F2B18" transform="translate(17,30)"/>
<path d="M0 0 C1.67542976 0.28604898 3.34385343 0.61781233 5 1 C4.67 2.32 4.34 3.64 4 5 C3.01 5 2.02 5 1 5 C0.34 3.68 -0.32 2.36 -1 1 C-0.67 0.67 -0.34 0.34 0 0 Z " fill="#FFDE60" transform="translate(22,14)"/>
<path d="M0 0 C0.66 0 1.32 0 2 0 C2.66 3.3 3.32 6.6 4 10 C2.68 10 1.36 10 0 10 C0.185625 9.278125 0.37125 8.55625 0.5625 7.8125 C1.01995307 4.87173027 0.73516357 2.85896942 0 0 Z " fill="#FCD336" transform="translate(30,13)"/>
<path d="M0 0 C0.66 0.33 1.32 0.66 2 1 C1.67 1.66 1.34 2.32 1 3 C1.99 3.33 2.98 3.66 4 4 C2 5 2 5 -1.125 4.0625 C-2.07375 3.711875 -3.0225 3.36125 -4 3 C-3 1 -3 1 0 0 Z " fill="#524925" transform="translate(31,22)"/>
</svg>
