<?xml version="1.0" encoding="UTF-8"?>
<svg version="1.1" xmlns="http://www.w3.org/2000/svg" width="48" height="48">
<path d="M0 0 C3.96 0 7.92 0 12 0 C11.39363767 5.76044212 9.24341721 10.72014369 7 16 C9.64 16.33 12.28 16.66 15 17 C13.44272772 21.6105758 10.95742724 25.16894476 8.125 29.0625 C7.69058594 29.67416016 7.25617187 30.28582031 6.80859375 30.91601562 C4.42519549 34.22629099 1.9961987 37.20587051 -1 40 C-0.46048934 33.31006781 0.88706171 27.36539272 3 21 C0.36 21 -2.28 21 -5 21 C-4.3900874 16.01155691 -3.36525565 11.39844654 -1.9375 6.5625 C-1.57527344 5.32628906 -1.21304687 4.09007812 -0.83984375 2.81640625 C-0.56269531 1.88699219 -0.28554688 0.95757812 0 0 Z " fill="#FFC106" transform="translate(18,5)"/>
</svg>
