<?xml version="1.0" encoding="UTF-8"?>
<svg version="1.1" xmlns="http://www.w3.org/2000/svg" width="64" height="64">
<path d="M0 0 C1.32 0.66 2.64 1.32 4 2 C4 2.66 4 3.32 4 4 C5.32 4.33 6.64 4.66 8 5 C8 5.99 8 6.98 8 8 C9.32 8.66 10.64 9.32 12 10 C10.47291037 13.43595166 8.40072955 16.11912454 6 19 C6.32097656 19.67675781 6.64195313 20.35351562 6.97265625 21.05078125 C9.47659364 28.23889049 9.19214152 37.48753745 6.0625 44.4375 C2.18467455 51.05521352 -3.63741774 56.62028828 -11 59 C-19.79822758 60.65511212 -27.36610129 60.18825199 -35.22265625 55.7421875 C-41.39270397 51.52118289 -45.29175986 46.14248379 -47.3125 38.9375 C-48.81907633 30.30892646 -48.18992424 22.60326541 -43.11328125 15.27734375 C-38.54285578 9.86142945 -34.08656597 5.45685644 -27 4 C-19.62320787 3.40673418 -12.97175727 3.32267386 -6 6 C-4.02 4.02 -2.04 2.04 0 0 Z " fill="#EB5E75" transform="translate(50,2)"/>
<path d="M0 0 C0.495 1.98 0.495 1.98 1 4 C1.99 3.67 2.98 3.34 4 3 C3.67 3.639375 3.34 4.27875 3 4.9375 C1.92728775 6.76794567 1.92728775 6.76794567 2 8 C2.99 7.34 3.98 6.68 5 6 C5.66 6.33 6.32 6.66 7 7 C6 9 5 11 4 13 C1.69 13 -0.62 13 -3 13 C-2.54177532 16.46941546 -2.10868317 19.67395049 -1 23 C-0.29757568 30.12787962 -0.60367558 36.14675412 -5 42 C-8.90097448 46.0605598 -12.12176375 48.80017585 -17.92578125 49.203125 C-29.58411215 49.36448598 -29.58411215 49.36448598 -34 46 C-39.52139854 40.46707454 -42.13174611 36.79309878 -42.375 28.8125 C-42.32611558 22.54132684 -41.20663093 18.65487849 -37 14 C-31.21203323 8.63554299 -26.83352126 7.5688294 -19.0625 7.6640625 C-14.63021898 8.15025659 -11.7737167 9.6777128 -8 12 C-8.66 12.99 -9.32 13.98 -10 15 C-10.763125 14.67 -11.52625 14.34 -12.3125 14 C-17.21450189 12.67064356 -21.94427532 12.62964879 -27 13 C-27.33 13.33 -27.66 13.66 -28 14 C-27.01 13.67 -26.02 13.34 -25 13 C-19.73428531 12.60258757 -16.5556846 13.3332578 -12 16 C-12.66 16.99 -13.32 17.98 -14 19 C-14.99 18.67 -15.98 18.34 -17 18 C-21.64796219 17.46905301 -24.96344284 17.35215177 -29 19.875 C-32.32530877 23.40814057 -32.33074386 26.04661263 -32.29296875 30.73828125 C-31.86344199 34.0542278 -30.39075646 35.74987627 -28 38 C-24.54260443 39.72869779 -20.78024432 39.48966895 -17 39 C-14.12970131 37.20606332 -12.50868362 36.01736724 -11 33 C-11 32.34 -11 31.68 -11 31 C-11.391875 31.763125 -11.78375 32.52625 -12.1875 33.3125 C-14.23658662 36.35080086 -15.6625017 37.52529145 -19 39 C-23.11419517 39.70028854 -24.67968091 39.18735645 -28.3125 37.0625 C-31.42514723 34.17981087 -32.03785219 31.30606314 -32.23828125 27.15234375 C-31.86587017 23.78843387 -30.47949372 22.21144034 -28 20 C-25.10882345 17.80669365 -23.97779491 18.00222051 -20.25 18.375 C-18.64125 18.684375 -18.64125 18.684375 -17 19 C-17.33 20.32 -17.66 21.64 -18 23 C-18.66 23 -19.32 23 -20 23 C-21.20628008 25.33214148 -22.1654738 27.49642139 -23 30 C-22.01 29.67 -21.02 29.34 -20 29 C-20 28.01 -20 27.02 -20 26 C-18.71484375 24.5012207 -18.71484375 24.5012207 -16.9375 22.92578125 C-16.30585937 22.33990234 -15.67421875 21.75402344 -15.0234375 21.15039062 C-13.68415704 19.93392063 -12.33525093 18.72795714 -10.9765625 17.53320312 C-7.33463974 14.26460904 -7.33463974 14.26460904 -5.62841797 9.84716797 C-5.67502068 7.89473643 -5.83152272 5.9457071 -6 4 C-3 0 -3 0 0 0 Z " fill="#323549" transform="translate(52,5)"/>
<path d="M0 0 C2.1875 1.1015625 2.1875 1.1015625 5.4375 3.1015625 C4.7775 4.0915625 4.1175 5.0815625 3.4375 6.1015625 C2.674375 5.7715625 1.91125 5.4415625 1.125 5.1015625 C-5.12718818 3.40605384 -11.09419405 2.88984867 -17 5.7890625 C-21.53615624 9.88266691 -24.2667192 13.08459835 -24.875 19.2890625 C-24.37813593 25.35080417 -22.38341584 29.45003418 -17.875 33.5390625 C-12.23641803 36.19877098 -7.73253272 36.77747433 -1.75 34.9140625 C2.70377222 32.38152536 5.47976261 29.84886562 7.4375 25.1015625 C8.04513524 19.18605474 7.82140812 13.61435003 5.4375 8.1015625 C6.7575 7.7715625 8.0775 7.4415625 9.4375 7.1015625 C12.90188307 13.59728076 13.85491513 20.19123152 11.78125 27.375 C9.5295829 32.44125097 6.02151786 36.02782431 1.4375 39.1015625 C-4.63066836 41.12428529 -11.83717943 40.90906489 -17.9375 39.1015625 C-22.46210109 35.65424738 -26.74053354 31.56746189 -28.5625 26.1015625 C-29.25795679 18.83900662 -29.47428679 12.69771003 -24.9921875 6.68359375 C-18.26897293 -0.75602893 -9.70551524 -3.40284833 0 0 Z " fill="#E2E9F0" transform="translate(38.5625,13.8984375)"/>
<path d="M0 0 C0.845625 0.495 1.69125 0.99 2.5625 1.5 C1.5725 2.985 1.5725 2.985 0.5625 4.5 C-0.4275 4.17 -1.4175 3.84 -2.4375 3.5 C-7.08546219 2.96905301 -10.40094284 2.85215177 -14.4375 5.375 C-17.76280877 8.90814057 -17.76824386 11.54661263 -17.73046875 16.23828125 C-17.30094199 19.5542278 -15.82825646 21.24987627 -13.4375 23.5 C-9.98010443 25.22869779 -6.21774432 24.98966895 -2.4375 24.5 C0.43279869 22.70606332 2.05381638 21.51736724 3.5625 18.5 C3.79583287 12.41483944 3.79583287 12.41483944 2.5625 6.5 C3.8825 6.17 5.2025 5.84 6.5625 5.5 C8.98266723 10.49159491 9.35268017 14.69379258 7.83984375 20.06640625 C6.48998781 23.82086385 5.3220343 26.76280494 2.4375 29.5625 C-3.47361102 31.4900362 -8.99375717 32.56141024 -14.8125 29.875 C-19.7791708 26.96108628 -22.85122808 23.05195172 -24.4375 17.5 C-24.91302005 12.26927949 -24.45921976 8.84372215 -21.4375 4.5 C-14.83767673 -0.6011134 -8.13790929 -3.55108769 0 0 Z " fill="#CD586B" transform="translate(37.4375,19.5)"/>
<path d="M0 0 C2.23488418 0.89585976 4.45755686 1.36336338 6.83203125 1.734375 C5.51670121 4.66433411 4.12321223 6.66202712 1.79296875 8.86328125 C1.21289062 9.42337891 0.6328125 9.98347656 0.03515625 10.56054688 C-1.18965299 11.72385395 -2.41623551 12.88529668 -3.64453125 14.04492188 C-4.22203125 14.60373047 -4.79953125 15.16253906 -5.39453125 15.73828125 C-6.19238037 16.49347046 -6.19238037 16.49347046 -7.00634766 17.26391602 C-8.47791127 18.81439967 -8.47791127 18.81439967 -8.16796875 21.734375 C-9.15796875 21.734375 -10.14796875 21.734375 -11.16796875 21.734375 C-10.61953751 17.89535632 -8.89144225 16.37273995 -6.16796875 13.734375 C-5.83796875 12.744375 -5.50796875 11.754375 -5.16796875 10.734375 C-10.86832376 10.2783466 -13.71581122 11.13024748 -18.16796875 14.734375 C-19.92754017 18.25351785 -19.10521106 22.01180697 -18.16796875 25.734375 C-16.33463542 28.56770833 -16.33463542 28.56770833 -13.16796875 29.734375 C-9.25887219 29.93325886 -5.63289072 29.83966522 -2.43359375 27.42578125 C-0.93550556 25.4237066 -0.72106874 24.20902751 -0.54296875 21.734375 C-0.33420871 19.10996302 -0.01732883 17.28245525 0.83203125 14.734375 C2.44633048 17.96297347 2.42773782 21.24431153 1.83203125 24.734375 C0.0960102 27.75945645 -2.00377012 30.15227569 -5.16796875 31.734375 C-8.96212394 32.26555673 -12.63128053 32.58526848 -16.05859375 30.6875 C-18.86882088 28.36838053 -20.92714667 26.45453275 -21.44140625 22.78125 C-21.63125918 18.48765301 -21.60223555 15.63854536 -18.79296875 12.234375 C-15.49445562 9.09293393 -14.19149998 8.60611623 -9.79296875 8.671875 C-9.02210937 8.68089844 -8.25125 8.68992187 -7.45703125 8.69921875 C-6.32394531 8.71662109 -6.32394531 8.71662109 -5.16796875 8.734375 C-3.84796875 8.734375 -2.52796875 8.734375 -1.16796875 8.734375 C-3.86278133 6.03956242 -5.71196818 5.76879014 -9.48046875 5.484375 C-13.45319604 5.75371244 -15.70147758 6.8802053 -19.16796875 8.734375 C-19.82796875 8.404375 -20.48796875 8.074375 -21.16796875 7.734375 C-16.47448863 3.67514895 -12.95300363 3.24285262 -6.8046875 3.4609375 C-3.71425408 3.78142689 -1.01971833 4.50118599 1.83203125 5.734375 C1.83203125 5.074375 1.83203125 4.414375 1.83203125 3.734375 C-3.79651841 -0.01799144 -9.55464039 -0.16941757 -16.16796875 0.734375 C-21.57424112 2.65187062 -25.52410673 6.31318776 -28.32421875 11.2890625 C-30.43397714 17.40345486 -29.99261325 24.06640749 -28.10546875 30.171875 C-24.88130379 34.43609317 -21.29251499 38.02619292 -16.16796875 39.734375 C-8.46450078 40.3693906 -2.37901047 40.62391848 3.83203125 35.734375 C9.18646663 30.09051068 10.15774205 25.02189831 10.03515625 17.47265625 C9.77466924 13.96109098 9.00883679 11.04414058 7.83203125 7.734375 C11.72664283 11.09790318 12.69251855 14.36250009 13.20703125 19.421875 C12.99867124 25.5569196 11.0284917 31.19676219 6.99609375 35.85546875 C0.97730359 41.40151869 -4.49948751 43.25897419 -12.6484375 43.0390625 C-19.85038356 42.16812949 -24.14775605 38.18360055 -28.72265625 32.83203125 C-32.65847146 27.11978053 -32.91584413 21.47472023 -32.16796875 14.734375 C-30.37685288 8.47083207 -26.48127562 4.33262712 -21.16796875 0.734375 C-13.64472786 -3.36921094 -7.63169016 -3.19116038 0 0 Z " fill="#442D32" transform="translate(40.16796875,13.265625)"/>
<path d="M0 0 C1.32 0.66 2.64 1.32 4 2 C4 2.66 4 3.32 4 4 C5.32 4.33 6.64 4.66 8 5 C8 5.99 8 6.98 8 8 C9.32 8.66 10.64 9.32 12 10 C10.47291037 13.43595166 8.40072955 16.11912454 6 19 C6.32097656 19.67675781 6.64195313 20.35351562 6.97265625 21.05078125 C9.47659364 28.23889049 9.19214152 37.48753745 6.0625 44.4375 C2.18467455 51.05521352 -3.63741774 56.62028828 -11 59 C-19.79822758 60.65511212 -27.36610129 60.18825199 -35.22265625 55.7421875 C-41.39270397 51.52118289 -45.29175986 46.14248379 -47.3125 38.9375 C-48.81907633 30.30892646 -48.18992424 22.60326541 -43.11328125 15.27734375 C-38.54285578 9.86142945 -34.08656597 5.45685644 -27 4 C-19.62320787 3.40673418 -12.97175727 3.32267386 -6 6 C-4.02 4.02 -2.04 2.04 0 0 Z M0 3 C-1.37868281 4.62935241 -2.71274093 6.29749607 -4 8 C-4.33 8.33 -4.66 8.66 -5 9 C-6.051875 8.566875 -6.051875 8.566875 -7.125 8.125 C-15.23079032 4.95316901 -20.72813289 3.62157982 -29.125 6.6875 C-37.427117 10.38156123 -41.03291078 14.60183496 -44.859375 22.80859375 C-47.20836031 29.38092595 -46.95420032 35.2910704 -44.375 41.75 C-39.89762376 50.50123537 -34.23897481 54.92034173 -25 58 C-16.14414407 59.20002164 -9.32577207 57.03379075 -2 52 C3.66794786 46.57751445 7.01104637 39.45248756 7.4375 31.625 C7.30021437 26.98959117 5.74209354 23.16971047 3.875 18.96875 C3 17 3 17 3 16 C3.99 16 4.98 16 6 16 C8.42713759 13.38148757 8.42713759 13.38148757 9 10 C8.01 9.67 7.02 9.34 6 9 C5.01 9.66 4.02 10.32 3 11 C3.99 10.01 4.98 9.02 6 8 C5.505 7.01 5.505 7.01 5 6 C4.34 6.33 3.68 6.66 3 7 C2.505 5.02 2.505 5.02 2 3 C1.34 3 0.68 3 0 3 Z " fill="#0B0405" transform="translate(50,2)"/>
<path d="M0 0 C0 0.99 0 1.98 0 3 C-2.97 3.66 -5.94 4.32 -9 5 C-10.12319413 9.59854277 -10.12319413 9.59854277 -9 14 C-5.88291635 15.55854182 -3.3141692 14.68784644 0 14 C0.12375 13.0925 0.2475 12.185 0.375 11.25 C0.92109677 8.41029677 1.57263803 6.47409409 3 4 C3.66 4 4.32 4 5 4 C6.33526012 11.16184971 6.33526012 11.16184971 4.875 14.8125 C1.95225147 18.22237329 -0.49424134 19.74370065 -4.9375 20.5 C-8.2404916 19.96073607 -10.32209397 18.97973619 -12.79296875 16.69140625 C-15.1237731 13.42526294 -15.43389032 9.91923875 -15 6 C-11.11034951 -0.77087307 -7.34574427 -1.41264313 0 0 Z " fill="#E0E7EE" transform="translate(35,24)"/>
<path d="M0 0 C0 3 0 3 -1.28515625 4.578125 C-1.87167969 5.12984375 -2.45820312 5.6815625 -3.0625 6.25 C-3.69414063 6.8584375 -4.32578125 7.466875 -4.9765625 8.09375 C-6.32552083 9.36458333 -7.67447917 10.63541667 -9.0234375 11.90625 C-9.65507813 12.5146875 -10.28671875 13.123125 -10.9375 13.75 C-11.52402344 14.30171875 -12.11054687 14.8534375 -12.71484375 15.421875 C-14.31572966 17.0485018 -14.31572966 17.0485018 -14 20 C-14.99 20 -15.98 20 -17 20 C-16.45156876 16.16098132 -14.7234735 14.63836495 -12 12 C-11.67 11.01 -11.34 10.02 -11 9 C-16.70035501 8.5439716 -19.54784247 9.39587248 -24 13 C-25.75957142 16.51914285 -24.93724231 20.27743197 -24 24 C-22.16666667 26.83333333 -22.16666667 26.83333333 -19 28 C-15.09090344 28.19888386 -11.46492197 28.10529022 -8.265625 25.69140625 C-6.76753681 23.6893316 -6.55309999 22.47465251 -6.375 20 C-6.16623996 17.37558802 -5.84936008 15.54808025 -5 13 C-3.38570077 16.22859847 -3.40429343 19.50993653 -4 23 C-5.73602105 26.02508145 -7.83580137 28.41790069 -11 30 C-14.79415519 30.53118173 -18.46331178 30.85089348 -21.890625 28.953125 C-24.70085213 26.63400553 -26.75917792 24.72015775 -27.2734375 21.046875 C-27.46329043 16.75327801 -27.4342668 13.90417036 -24.625 10.5 C-21.32648687 7.35855893 -20.02353123 6.87174123 -15.625 6.9375 C-14.85414062 6.94652344 -14.08328125 6.95554687 -13.2890625 6.96484375 C-12.15597656 6.98224609 -12.15597656 6.98224609 -11 7 C-9.68 7 -8.36 7 -7 7 C-9.69481258 4.30518742 -11.54399943 4.03441514 -15.3125 3.75 C-19.28522729 4.01933744 -21.53350883 5.1458303 -25 7 C-25.66 6.67 -26.32 6.34 -27 6 C-22.30651988 1.94077395 -18.78503488 1.50847762 -12.63671875 1.7265625 C-9.54628533 2.04705189 -6.85174958 2.76681099 -4 4 C-3.67 3.01 -3.34 2.02 -3 1 C-2.01 0.67 -1.02 0.34 0 0 Z " fill="#342427" transform="translate(46,15)"/>
<path d="M0 0 C1.32 0.66 2.64 1.32 4 2 C4 2.66 4 3.32 4 4 C5.32 4.33 6.64 4.66 8 5 C8 5.99 8 6.98 8 8 C9.32 8.66 10.64 9.32 12 10 C10.8642559 12.55542423 9.65127473 14.43077828 7.875 16.625 C5.7934519 18.75730599 5.7934519 18.75730599 6 21 C5.34 21 4.68 21 4 21 C3.01 19.02 2.02 17.04 1 15 C2.65 15.33 4.3 15.66 6 16 C6.309375 15.38125 6.61875 14.7625 6.9375 14.125 C7.625 12.75 8.3125 11.375 9 10 C6.07120629 10.62759865 3.63904371 11.58622659 1 13 C2.32 11.02 3.64 9.04 5 7 C4.34 7 3.68 7 3 7 C2.67 5.68 2.34 4.36 2 3 C-1.78034623 6.47736026 -1.78034623 6.47736026 -4 11 C-5.65 9.68 -7.3 8.36 -9 7 C-7.88625 6.38125 -7.88625 6.38125 -6.75 5.75 C-4.09828315 4.06254382 -2.13325986 2.29127911 0 0 Z " fill="#1B1509" transform="translate(50,2)"/>
<path d="M0 0 C0.33 1.32 0.66 2.64 1 4 C1.99 3.67 2.98 3.34 4 3 C3.67 3.639375 3.34 4.27875 3 4.9375 C1.92728775 6.76794567 1.92728775 6.76794567 2 8 C2.99 7.34 3.98 6.68 5 6 C5.66 6.33 6.32 6.66 7 7 C6 9 5 11 4 13 C2.88625 12.938125 1.7725 12.87625 0.625 12.8125 C-1.169375 12.9053125 -1.169375 12.9053125 -3 13 C-3.66 13.99 -4.32 14.98 -5 16 C-6.84457074 12.31085851 -6.4871454 8.02706861 -6 4 C-3.14285714 0 -3.14285714 0 0 0 Z " fill="#5F5D60" transform="translate(52,5)"/>
<path d="M0 0 C0 3 0 3 -1.28515625 4.578125 C-1.87167969 5.12984375 -2.45820312 5.6815625 -3.0625 6.25 C-3.69414063 6.8584375 -4.32578125 7.466875 -4.9765625 8.09375 C-6.32552083 9.36458333 -7.67447917 10.63541667 -9.0234375 11.90625 C-9.65507813 12.5146875 -10.28671875 13.123125 -10.9375 13.75 C-11.52402344 14.30171875 -12.11054687 14.8534375 -12.71484375 15.421875 C-14.31572966 17.0485018 -14.31572966 17.0485018 -14 20 C-14.99 20 -15.98 20 -17 20 C-16.40724092 16.71090998 -15.34943983 14.91094429 -13.125 12.4375 C-12.61195312 11.85871094 -12.09890625 11.27992187 -11.5703125 10.68359375 C-10.08005116 9.085826 -8.55644304 7.533143 -7 6 C-11.14327024 3.9911417 -14.41538356 3.59784066 -19 4 C-21.02237052 4.95394836 -23.0282696 5.94535351 -25 7 C-25.66 6.67 -26.32 6.34 -27 6 C-22.30651988 1.94077395 -18.78503488 1.50847762 -12.63671875 1.7265625 C-9.54628533 2.04705189 -6.85174958 2.76681099 -4 4 C-3.67 3.01 -3.34 2.02 -3 1 C-2.01 0.67 -1.02 0.34 0 0 Z " fill="#201D27" transform="translate(46,15)"/>
<path d="M0 0 C0.99 0 1.98 0 3 0 C2.34 1.98 1.68 3.96 1 6 C2.98 5.01 4.96 4.02 7 3 C7.1875 5.375 7.1875 5.375 7 8 C4 10 4 10 1.4375 9.8125 C-1 9 -1 9 -3 6 C-2.64111965 3.03923709 -2.15341979 2.15341979 0 0 Z " fill="#E85D74" transform="translate(28,29)"/>
<path d="M0 0 C-0.99 0.495 -0.99 0.495 -2 1 C-2.33 1.66 -2.66 2.32 -3 3 C-5.0625 3.625 -5.0625 3.625 -7 4 C-7.77242269 5.83700789 -7.77242269 5.83700789 -8 8 C-6.98029682 9.93654948 -6.98029682 9.93654948 -5 11 C-2.34533951 10.76956136 -2.34533951 10.76956136 0 10 C0 8.02 0 6.04 0 4 C0.66 3.67 1.32 3.34 2 3 C2.75 5.75 2.75 5.75 3 9 C1.5 11.4375 1.5 11.4375 -1 13 C-4.625 12.9375 -4.625 12.9375 -8 12 C-10 9 -10 9 -9.8125 5.4375 C-8.43137602 -0.40571686 -5.34987951 -0.23777242 0 0 Z " fill="#332629" transform="translate(34,27)"/>
<path d="M0 0 C0.75 1.75 0.75 1.75 1 4 C-0.8125 6.25 -0.8125 6.25 -3 8 C-3.66 8 -4.32 8 -5 8 C-5.75 6.25 -5.75 6.25 -6 4 C-2.77777778 0 -2.77777778 0 0 0 Z " fill="#E2B846" transform="translate(52,5)"/>
<path d="M0 0 C0.99 0.33 1.98 0.66 3 1 C2 3 1 5 0 7 C-1.65 6.67 -3.3 6.34 -5 6 C-5 5.34 -5 4.68 -5 4 C-2.6875 1.8125 -2.6875 1.8125 0 0 Z " fill="#E0B745" transform="translate(56,11)"/>
<path d="M0 0 C1.485 0.99 1.485 0.99 3 2 C3 2.66 3 3.32 3 4 C4.32 4.33 5.64 4.66 7 5 C6.34 5.66 5.68 6.32 5 7 C4.01 7 3.02 7 2 7 C1.87625 6.195625 1.7525 5.39125 1.625 4.5625 C1.315625 3.2940625 1.315625 3.2940625 1 2 C0.34 1.67 -0.32 1.34 -1 1 C-0.67 0.67 -0.34 0.34 0 0 Z " fill="#090907" transform="translate(51,2)"/>
<path d="M0 0 C0 0.66 0 1.32 0 2 C-1.65532623 3.01866229 -3.32260138 4.01810813 -5 5 C-5.33 5.66 -5.66 6.32 -6 7 C-6.99 6.67 -7.98 6.34 -9 6 C-8.07213211 4.99105628 -7.13231567 3.99309093 -6.1875 3 C-5.66542969 2.443125 -5.14335938 1.88625 -4.60546875 1.3125 C-3 0 -3 0 0 0 Z " fill="#2B4A70" transform="translate(40,26)"/>
<path d="M0 0 C1.98 0.495 1.98 0.495 4 1 C3.67 2.32 3.34 3.64 3 5 C1.68 4.34 0.36 3.68 -1 3 C-0.67 2.01 -0.34 1.02 0 0 Z " fill="#70D4F9" transform="translate(2,50)"/>
<path d="M0 0 C-0.99 0.495 -0.99 0.495 -2 1 C-2.33 1.66 -2.66 2.32 -3 3 C-5.5625 3.625 -5.5625 3.625 -8 4 C-8 3.01 -8 2.02 -8 1 C-5.29120665 -0.35439668 -2.99066732 -0.06501451 0 0 Z " fill="#66464D" transform="translate(34,27)"/>
<path d="M0 0 C0.99 0.66 1.98 1.32 3 2 C2.34 3.32 1.68 4.64 1 6 C0.67 5.34 0.34 4.68 0 4 C-0.66 4 -1.32 4 -2 4 C-2 3.34 -2 2.68 -2 2 C-1.34 2 -0.68 2 0 2 C0 1.34 0 0.68 0 0 Z " fill="#F5C74D" transform="translate(61,18)"/>
<path d="M0 0 C1.32 0.66 2.64 1.32 4 2 C3.01 2.495 3.01 2.495 2 3 C1.67 3.66 1.34 4.32 1 5 C0.34 3.68 -0.32 2.36 -1 1 C-0.67 0.67 -0.34 0.34 0 0 Z " fill="#FC6477" transform="translate(5,11)"/>
<path d="M0 0 C0.66 0 1.32 0 2 0 C2 0.99 2 1.98 2 3 C1.01 2.67 0.02 2.34 -1 2 C-0.67 1.34 -0.34 0.68 0 0 Z " fill="#85CF45" transform="translate(60,27)"/>
<path d="M0 0 C0.99 0.33 1.98 0.66 3 1 C2.67 1.66 2.34 2.32 2 3 C1.34 3 0.68 3 0 3 C0 2.01 0 1.02 0 0 Z " fill="#6BDBFB" transform="translate(10,7)"/>
<path d="M0 0 C0.66 0 1.32 0 2 0 C2 0.99 2 1.98 2 3 C1.34 3 0.68 3 0 3 C0 2.01 0 1.02 0 0 Z " fill="#F5C747" transform="translate(0,43)"/>
</svg>
