<?xml version="1.0" encoding="UTF-8"?>
<svg version="1.1" xmlns="http://www.w3.org/2000/svg" width="192" height="256">
<path d="M0 0 C1.11375 0.639375 2.2275 1.27875 3.375 1.9375 C6.09019507 4.07086755 8.05212757 6.15310953 10 9 C10 9.66 10 10.32 10 11 C10.78375 11.12375 11.5675 11.2475 12.375 11.375 C15 12 15 12 17 14 C17.45662153 16.19291082 17.820412 18.40585889 18.125 20.625 C18.29257813 21.81351563 18.46015625 23.00203125 18.6328125 24.2265625 C18.75398437 25.14179687 18.87515625 26.05703125 19 27 C20.65 27.33 22.3 27.66 24 28 C23.86722656 28.78503906 23.73445312 29.57007813 23.59765625 30.37890625 C22.66757357 35.91187987 21.75808113 41.44073841 21 47 C22.36125 47.7734375 22.36125 47.7734375 23.75 48.5625 C27.33891792 51.00330437 29.60554755 53.87931468 31 58 C31.77558892 62.92261539 31.66917351 67.38304682 29.375 71.875 C26.86204226 75.18152334 24.63569784 77.02407726 21 79 C20.34 79 19.68 79 19 79 C19.33 79.66 19.66 80.32 20 81 C20.40828572 86.36468443 20.4474014 91.10519721 18 96 C18 96.66 18 97.32 18 98 C18.886875 97.9175 19.77375 97.835 20.6875 97.75 C24.79068934 98.05967467 26.15799111 99.07904641 29 102 C29.350625 102.886875 29.70125 103.77375 30.0625 104.6875 C30.75928739 107.13780009 30.75928739 107.13780009 32.875 107.9375 C35.5746848 108.01690249 36.74325328 107.48099004 39 106 C39.9590625 105.01 39.9590625 105.01 40.9375 104 C44.3959403 100.64636092 47.17158928 100.07889626 51.9375 99.625 C57.48017655 99.78157278 60.62568122 102.62568122 64.4375 106.4375 C66 109 66 109 65.75 111.8125 C65.37875 112.8953125 65.37875 112.8953125 65 114 C62.36 114.33 59.72 114.66 57 115 C56.67 113.68 56.34 112.36 56 111 C53.69 111 51.38 111 49 111 C49.99 112.485 49.99 112.485 51 114 C51.56074766 121.06542056 51.56074766 121.06542056 49.5 124.5 C49.005 124.995 48.51 125.49 48 126 C49.98 126 51.96 126 54 126 C54.33 125.34 54.66 124.68 55 124 C58.73487777 124.4979837 60.81237635 124.87491756 64 127 C63.45503269 130.81477116 61.88938827 132.52338148 59 135 C55.3676464 137.59453828 51.29689307 137.63715232 47 137 C43.22607523 135.69493511 39.94534266 134.3501091 37.61328125 131.01953125 C35.52755687 128.40858813 33.59125023 127.66993266 30.5 126.4375 C29.43652344 126.01339844 28.37304688 125.58929688 27.27734375 125.15234375 C24.22221521 124.07813288 21.20891334 123.25565151 18.0625 122.5 C13.45797226 121.31901162 10.90121589 119.9306796 8 116 C6.6875 113.1875 6.6875 113.1875 6 111 C3.0767921 121.0961214 2.84890186 131.52129678 2.20800781 141.96240234 C2.03681824 144.46233266 1.80445548 146.93667941 1.5234375 149.42578125 C1.1116646 154.71412179 1.01737135 157.66692337 4.234375 162.03125 C6.00623528 163.98974024 7.81327177 165.65024234 9.8125 167.40234375 C12 170 12 170 12 177 C0.12 177 -11.76 177 -24 177 C-24 165.12 -24 153.24 -24 141 C-25.32 141 -26.64 141 -28 141 C-28 152.88 -28 164.76 -28 177 C-39.88 177 -51.76 177 -64 177 C-64 170 -64 170 -62.57421875 167.92578125 C-61.95160156 167.39339844 -61.32898437 166.86101562 -60.6875 166.3125 C-55.61031555 161.99012163 -55.61031555 161.99012163 -53.6015625 155.828125 C-53.64130999 149.76000774 -53.7206711 144.88467106 -56.27734375 139.37890625 C-57.34912362 135.85072278 -57.36518896 132.28460725 -57.5 128.625 C-57.74531495 122.02301531 -58.57385112 116.21033078 -61 110 C-61.78375 110.969375 -62.5675 111.93875 -63.375 112.9375 C-65.38068045 115.41821003 -66.63787636 116.79918525 -69.90771484 117.28125 C-71.04781006 117.38953125 -71.04781006 117.38953125 -72.2109375 117.5 C-73.04367188 117.5825 -73.87640625 117.665 -74.734375 117.75 C-75.60578125 117.8325 -76.4771875 117.915 -77.375 118 C-79.09140699 118.16395529 -80.80756611 118.33053122 -82.5234375 118.5 C-83.6669165 118.60828125 -83.6669165 118.60828125 -84.83349609 118.71875 C-86.9824144 118.99771708 -88.95034243 119.28865159 -91 120 C-91.2475 120.763125 -91.495 121.52625 -91.75 122.3125 C-93.40901401 125.87938012 -95.33303241 126.71702236 -98.85546875 128.265625 C-102.96268285 129.67210269 -106.13506184 129.8288614 -110.14453125 128.046875 C-113.57705782 126.09249951 -115.6168516 124.71840325 -117.5 121.1875 C-117.665 120.465625 -117.83 119.74375 -118 119 C-113.70967742 115.93548387 -113.70967742 115.93548387 -110.25 116.25 C-108 117 -108 117 -107 118 C-105.33382885 118.04063832 -103.66611905 118.042721 -102 118 C-102.495 117.319375 -102.99 116.63875 -103.5 115.9375 C-105.33427147 112.34538504 -105.36917963 109.98714001 -105 106 C-104.34 105.01 -103.68 104.02 -103 103 C-105.37429296 102.74930087 -105.37429296 102.74930087 -108 103 C-108.45375 103.495 -108.9075 103.99 -109.375 104.5 C-111 106 -111 106 -114.5625 106.25 C-118 106 -118 106 -120 105 C-119.92430022 101.8206091 -119.63231963 99.69110312 -117.4453125 97.30078125 C-112.34677124 92.93211415 -109.30112202 91.65232383 -102.55078125 91.7109375 C-98.86881994 92.12818886 -96.72439913 93.55502642 -94 96 C-93.67 96.99 -93.34 97.98 -93 99 C-89.95885568 99.72881454 -87.13092064 100.23270356 -84 100 C-81.26020797 97.17892499 -81.26020797 97.17892499 -79 94 C-75.6875 93.125 -75.6875 93.125 -73 93 C-73.33 92.34 -73.66 91.68 -74 91 C-74.55258891 85.96328793 -74.53929549 82.07859097 -72.25 77.5 C-70.13033319 75.14481465 -68.99457452 73.90744682 -66 73 C-63.25 72.875 -63.25 72.875 -61 73 C-61 72.34 -61 71.68 -61 71 C-61.86625 70.773125 -62.7325 70.54625 -63.625 70.3125 C-68.05714891 68.58888653 -71.55167371 66.305499 -74.1484375 62.171875 C-75.81248301 57.92779564 -75.52552182 53.47017939 -75 49 C-72.83403778 44.58785475 -70.13342847 41.65720401 -66 39 C-63.03 38.505 -63.03 38.505 -60 38 C-60 31.4 -60 24.8 -60 18 C-58.35 18 -56.7 18 -55 18 C-54.64808594 17.16855469 -54.29617187 16.33710937 -53.93359375 15.48046875 C-49.84882211 6.48970506 -49.84882211 6.48970506 -45.75 4.125 C-44.5125 3.75375 -43.275 3.3825 -42 3 C-39.39671436 1.50321135 -36.86898633 -0.08924015 -34.33203125 -1.6953125 C-24.84275847 -7.00421888 -9.11112014 -5.23979439 0 0 Z " fill="#3B6383" transform="translate(122,79)"/>
<path d="M0 0 C1.11375 0.639375 2.2275 1.27875 3.375 1.9375 C6.09019507 4.07086755 8.05212757 6.15310953 10 9 C10 9.66 10 10.32 10 11 C10.78375 11.12375 11.5675 11.2475 12.375 11.375 C15 12 15 12 17 14 C17.45662153 16.19291082 17.820412 18.40585889 18.125 20.625 C18.29257813 21.81351563 18.46015625 23.00203125 18.6328125 24.2265625 C18.75398438 25.14179687 18.87515625 26.05703125 19 27 C20.65 27.33 22.3 27.66 24 28 C23.86722656 28.78503906 23.73445313 29.57007813 23.59765625 30.37890625 C22.66757357 35.91187987 21.75808113 41.44073841 21 47 C22.36125 47.7734375 22.36125 47.7734375 23.75 48.5625 C27.33891792 51.00330437 29.60554755 53.87931468 31 58 C31.77558892 62.92261539 31.66917351 67.38304682 29.375 71.875 C26.76836104 75.30478811 24.88473261 77.13234009 21 79 C18.23694875 79.30423489 15.79393066 79.19268487 13 79 C13.45224761 73.08507728 14.1582605 67.64800112 16 62 C5.80764833 66.26561197 0.37564397 71.27134293 -3.9375 81.5 C-4.64083596 83.32731658 -5.334071 85.15872166 -6 87 C-15.17005758 86.55382562 -24.30403338 85.94481115 -33.4375 85 C-34.25968018 84.9170166 -35.08186035 84.8340332 -35.92895508 84.74853516 C-41.75210639 84.12394681 -41.75210639 84.12394681 -44 83 C-44.31923355 80.82152664 -44.55464826 78.63055585 -44.75 76.4375 C-45.62681598 69.80067751 -46.98905866 65.52074056 -52 61 C-54.600417 59.09645734 -57.16712347 57.56296636 -60 56 C-60 60.95 -60 65.9 -60 71 C-66.79110651 69.86814891 -66.79110651 69.86814891 -69.75 67.1875 C-70.32234375 66.68605469 -70.8946875 66.18460937 -71.484375 65.66796875 C-75.38302749 61.37744139 -75.42827336 57.29221959 -75.31640625 51.69140625 C-74.72762448 46.68312679 -72.10728129 44.07814231 -68.625 40.6875 C-66 39 -66 39 -60 38 C-60 31.4 -60 24.8 -60 18 C-58.35 18 -56.7 18 -55 18 C-54.64808594 17.16855469 -54.29617187 16.33710937 -53.93359375 15.48046875 C-49.84882211 6.48970506 -49.84882211 6.48970506 -45.75 4.125 C-44.5125 3.75375 -43.275 3.3825 -42 3 C-39.39671436 1.50321135 -36.86898633 -0.08924015 -34.33203125 -1.6953125 C-24.84275847 -7.00421888 -9.11112014 -5.23979439 0 0 Z " fill="#5391C1" transform="translate(122,79)"/>
<path d="M0 0 C5.37615921 3.10510878 8.61270919 7.15062758 10.58984375 13.08203125 C10.70891235 14.87082927 10.76506488 16.66431685 10.77734375 18.45703125 C10.79152344 19.39289063 10.80570313 20.32875 10.8203125 21.29296875 C10.58984375 24.08203125 10.58984375 24.08203125 8.58984375 29.08203125 C12.87984375 29.08203125 17.16984375 29.08203125 21.58984375 29.08203125 C21.76270146 43.65969808 21.76270146 43.65969808 21.08984375 48.64453125 C20.91996266 50.12333219 20.75368722 51.6025492 20.58984375 53.08203125 C20.45191406 54.16097656 20.31398438 55.23992187 20.171875 56.3515625 C19.7589129 61.87567869 19.49671166 65.56389859 22.8203125 70.1796875 C25.52781349 73.03000898 25.52781349 73.03000898 28.40234375 75.484375 C30.58984375 78.08203125 30.58984375 78.08203125 30.58984375 85.08203125 C18.70984375 85.08203125 6.82984375 85.08203125 -5.41015625 85.08203125 C-5.41015625 73.20203125 -5.41015625 61.32203125 -5.41015625 49.08203125 C-6.73015625 49.08203125 -8.05015625 49.08203125 -9.41015625 49.08203125 C-9.41015625 60.96203125 -9.41015625 72.84203125 -9.41015625 85.08203125 C-21.29015625 85.08203125 -33.17015625 85.08203125 -45.41015625 85.08203125 C-45.41015625 78.08203125 -45.41015625 78.08203125 -43.984375 76.0078125 C-43.36175781 75.47542969 -42.73914062 74.94304687 -42.09765625 74.39453125 C-37.0204718 70.07215288 -37.0204718 70.07215288 -35.01171875 63.91015625 C-34.87025382 56.35676641 -34.87025382 56.35676641 -36.91015625 49.20703125 C-39.7581454 43.13666941 -38.6244206 35.62106165 -38.41015625 29.08203125 C-34.12015625 29.08203125 -29.83015625 29.08203125 -25.41015625 29.08203125 C-26.07015625 27.43203125 -26.73015625 25.78203125 -27.41015625 24.08203125 C-28.31241161 17.87035011 -28.21517632 12.50598358 -24.84765625 7.08203125 C-18.59134076 -0.91618183 -9.88738507 -3.76585979 0 0 Z " fill="#4F8BBA" transform="translate(103.41015625,170.91796875)"/>
<path d="M0 0 C5.37615921 3.10510878 8.61270919 7.15062758 10.58984375 13.08203125 C10.70891235 14.87082927 10.76506488 16.66431685 10.77734375 18.45703125 C10.79152344 19.39289063 10.80570313 20.32875 10.8203125 21.29296875 C10.58984375 24.08203125 10.58984375 24.08203125 8.58984375 29.08203125 C12.87984375 29.08203125 17.16984375 29.08203125 21.58984375 29.08203125 C21.58984375 32.05203125 21.58984375 35.02203125 21.58984375 38.08203125 C1.78984375 38.08203125 -18.01015625 38.08203125 -38.41015625 38.08203125 C-38.41015625 35.11203125 -38.41015625 32.14203125 -38.41015625 29.08203125 C-34.12015625 29.08203125 -29.83015625 29.08203125 -25.41015625 29.08203125 C-26.07015625 27.43203125 -26.73015625 25.78203125 -27.41015625 24.08203125 C-28.31241161 17.87035011 -28.21517632 12.50598358 -24.84765625 7.08203125 C-18.59134076 -0.91618183 -9.88738507 -3.76585979 0 0 Z " fill="#314A5F" transform="translate(103.41015625,170.91796875)"/>
<path d="M0 0 C0.79696289 0.00161133 1.59392578 0.00322266 2.41503906 0.00488281 C8.70157865 0.13547895 13.74170324 1.2227272 19.25 4.375 C20.343125 4.973125 21.43625 5.57125 22.5625 6.1875 C25.91652432 8.9175198 27.8870677 11.76110354 30.25 15.375 C29.59515625 15.74238281 28.9403125 16.10976562 28.265625 16.48828125 C25.95283547 18.25423182 25.95283547 18.25423182 25.859375 21.29296875 C25.90578125 22.37191406 25.9521875 23.45085937 26 24.5625 C26.05414063 26.19251953 26.05414063 26.19251953 26.109375 27.85546875 C26.15578125 28.68691406 26.2021875 29.51835938 26.25 30.375 C9.85630831 29.14087562 -6.44178054 27.45096977 -22.75 25.375 C-22.22301438 22.14948459 -21.66232349 18.95123022 -21 15.75 C-20.71060986 11.84323306 -21.32592742 11.23640526 -23.75 8.375 C-22.3812552 7.40775368 -21.00464396 6.4516356 -19.625 5.5 C-18.85929687 4.96632813 -18.09359375 4.43265625 -17.3046875 3.8828125 C-11.63620488 0.53719432 -6.4289341 -0.01347785 0 0 Z " fill="#BED3E4" transform="translate(102.75,74.625)"/>
<path d="M0 0 C2.74716633 2.31011714 4.87859626 4.24339787 6.75 7.3125 C6.5 10.125 6.5 10.125 5.75 12.3125 C3.11 12.6425 0.47 12.9725 -2.25 13.3125 C-2.745 11.3325 -2.745 11.3325 -3.25 9.3125 C-5.56 9.3125 -7.87 9.3125 -10.25 9.3125 C-9.26 10.7975 -9.26 10.7975 -8.25 12.3125 C-7.68925234 19.37792056 -7.68925234 19.37792056 -9.75 22.8125 C-10.245 23.3075 -10.74 23.8025 -11.25 24.3125 C-9.27 24.3125 -7.29 24.3125 -5.25 24.3125 C-4.92 23.6525 -4.59 22.9925 -4.25 22.3125 C-0.51512223 22.8104837 1.56237635 23.18741756 4.75 25.3125 C4.20503269 29.12727116 2.63938827 30.83588148 -0.25 33.3125 C-3.8823536 35.90703828 -7.95310693 35.94965232 -12.25 35.3125 C-16.01212658 34.01151505 -19.31358207 32.68069565 -21.60546875 29.33203125 C-23.80859575 26.6265285 -26.00139009 25.9562853 -29.25 24.75 C-35.73401487 22.32644052 -35.73401487 22.32644052 -38.25 19.3125 C-37.30125 18.735 -36.3525 18.1575 -35.375 17.5625 C-31.2404753 14.58564222 -30.56779595 12.96503893 -29.625 8.0625 C-29.50125 7.155 -29.3775 6.2475 -29.25 5.3125 C-28.5075 5.51875 -27.765 5.725 -27 5.9375 C-23.81217997 6.37220273 -22.87539583 6.09099395 -20.25 4.3125 C-19.610625 3.6525 -18.97125 2.9925 -18.3125 2.3125 C-13.13359649 -2.70946704 -6.24158528 -3.24082313 0 0 Z " fill="#4F8AB8" transform="translate(181.25,180.6875)"/>
<path d="M0 0 C5.61971831 2.85915493 5.61971831 2.85915493 7 7 C10.3 7.33 13.6 7.66 17 8 C16.9071875 10.0728125 16.9071875 10.0728125 16.8125 12.1875 C16.80605308 16.28129473 17.34924666 18.73753435 20 22 C20.66 22.33 21.32 22.66 22 23 C22 23.66 22 24.32 22 25 C21.08476563 25.15855469 20.16953125 25.31710938 19.2265625 25.48046875 C18.03804687 25.71378906 16.84953125 25.94710937 15.625 26.1875 C13.84996094 26.51814453 13.84996094 26.51814453 12.0390625 26.85546875 C8.80696217 27.67277132 8.80696217 27.67277132 7.81640625 30.46875 C7.54699219 31.3040625 7.27757813 32.139375 7 33 C3.59227425 35.73401445 -0.2352189 36.87708875 -4.5 37.5625 C-9.13882678 36.81697427 -12.45388338 35.07274742 -16 32 C-17.5 29.1875 -17.5 29.1875 -18 27 C-13.70967742 23.93548387 -13.70967742 23.93548387 -10.25 24.25 C-8 25 -8 25 -7 26 C-5.33382885 26.04063832 -3.66611905 26.042721 -2 26 C-2.495 25.319375 -2.99 24.63875 -3.5 23.9375 C-5.33427147 20.34538504 -5.36917963 17.98714001 -5 14 C-4.34 13.01 -3.68 12.02 -3 11 C-5.37429296 10.74930087 -5.37429296 10.74930087 -8 11 C-8.45375 11.495 -8.9075 11.99 -9.375 12.5 C-11 14 -11 14 -14.5625 14.25 C-18 14 -18 14 -20 13 C-19.92430022 9.8206091 -19.63231963 7.69110312 -17.4453125 5.30078125 C-11.66660126 0.34931291 -7.66952132 -0.86913412 0 0 Z " fill="#508AB8" transform="translate(22,171)"/>
<path d="M0 0 C5.04896704 2.87838308 7.65012026 5.74583601 9.83984375 11.12890625 C10.67926482 17.00485374 9.79754287 20.50422515 6.3828125 25.36328125 C3.31479135 28.8740295 0.24659959 30.71924568 -4.36328125 31.50390625 C-9.80218615 31.79990107 -14.0196144 30.74383528 -18.16015625 27.12890625 C-21.89862096 22.33600278 -22.81359007 18.55305763 -22.546875 12.4921875 C-21.75803551 7.67150175 -19.10842112 4.98465747 -15.59765625 1.81640625 C-10.84437133 -1.47432946 -5.36541083 -2.1636286 0 0 Z " fill="#4A7EA3" transform="translate(108.16015625,112.87109375)"/>
<path d="M0 0 C2.5 0.5 2.5 0.5 4.8125 1.8125 C7.50135361 6.09474834 6.80567759 10.57519437 6.5 15.5 C7.32242188 15.37238281 8.14484375 15.24476563 8.9921875 15.11328125 C14.41348488 14.63124903 18.04415908 14.46195414 22.58984375 17.703125 C28.03981954 23.42677246 29.5 25.20324623 29.5 33.5 C17.62 33.5 5.74 33.5 -6.5 33.5 C-6.5825 28.7975 -6.665 24.095 -6.75 19.25 C-6.78641602 17.77241211 -6.82283203 16.29482422 -6.86035156 14.77246094 C-6.8703418 13.60489258 -6.88033203 12.43732422 -6.890625 11.234375 C-6.91157227 10.04038086 -6.93251953 8.84638672 -6.95410156 7.61621094 C-6.30844398 3.18547255 -4.44379309 0.88875862 0 0 Z " fill="#324A5D" transform="translate(104.5,222.5)"/>
<path d="M0 0 C7.03176693 -0.66969209 7.03176693 -0.66969209 9.60498047 1.11010742 C11.6802969 3.92162728 11.33827003 6.17872111 11.29296875 9.63671875 C11.28172974 11.39181763 11.28172974 11.39181763 11.27026367 13.18237305 C11.24295166 14.66906494 11.21563965 16.15575684 11.1875 17.6875 C11.125625 22.410625 11.06375 27.13375 11 32 C-0.88 32 -12.76 32 -25 32 C-25 25 -25 25 -23.57421875 22.92578125 C-22.95160156 22.39339844 -22.32898437 21.86101562 -21.6875 21.3125 C-18.86776723 18.83683219 -18.86776723 18.83683219 -16.6875 15.80859375 C-15 14 -15 14 -11.86328125 13.609375 C-10.69152344 13.65578125 -9.51976563 13.7021875 -8.3125 13.75 C-7.13300781 13.78609375 -5.95351562 13.8221875 -4.73828125 13.859375 C-3.38283203 13.92898437 -3.38283203 13.92898437 -2 14 C-2.02320312 13.24074219 -2.04640625 12.48148438 -2.0703125 11.69921875 C-2.09738281 10.20841797 -2.09738281 10.20841797 -2.125 8.6875 C-2.14820312 7.70136719 -2.17140625 6.71523437 -2.1953125 5.69921875 C-2 3 -2 3 0 0 Z " fill="#31495D" transform="translate(83,224)"/>
<path d="M0 0 C-0.31014392 2.08368538 -0.6232052 4.16693668 -0.9375 6.25 C-1.19853516 7.99023438 -1.19853516 7.99023438 -1.46484375 9.765625 C-1.8727736 12.23106961 -2.33901303 14.59424562 -3 17 C-1.02 17 0.96 17 3 17 C4.22485812 19.44971624 4.16722808 21.14234461 4.1875 23.875 C4.20167969 24.73867187 4.21585938 25.60234375 4.23046875 26.4921875 C3.97977982 29.22002297 3.53765719 30.73959543 2 33 C0.125 34.265625 0.125 34.265625 -2 35.25 C-2.70125 35.58515625 -3.4025 35.9203125 -4.125 36.265625 C-6 37 -6 37 -8 37 C-7.34 32.38 -6.68 27.76 -6 23 C-7.98 23.99 -9.96 24.98 -12 26 C-14.5546875 26.29296875 -14.5546875 26.29296875 -16.875 26.1875 C-18.04675781 26.14689453 -18.04675781 26.14689453 -19.2421875 26.10546875 C-19.82226562 26.07066406 -20.40234375 26.03585938 -21 26 C-21.91198075 19.00814758 -19.17967035 14.50235085 -15 9 C-10.81571223 4.63936294 -6.3331624 0 0 0 Z " fill="#324E63" transform="translate(138,141)"/>
<path d="M0 0 C3.49890004 2.11391877 4.70578686 3.11736059 6 7 C6.38773716 11.73039335 6.48117872 14.05546399 4.3125 18.3125 C1.1431403 21.99580992 -1.13188951 23.76648619 -6 24.375 C-10.5004406 23.81244492 -12.89812802 22.24878824 -15.875 18.875 C-17.50482554 14.70989028 -17.25298622 11.26915665 -16 7 C-11.99444935 0.28686459 -7.43418905 -0.95013815 0 0 Z " fill="#344D62" transform="translate(146,177)"/>
<path d="M0 0 C3.05831573 1.27171344 3.81632165 2.25640413 6 5 C7.0674996 9.57618047 6.65043453 12.90819919 4.25 16.9375 C1.152255 19.77709959 -0.71650357 20.80468533 -4.875 21.4375 C-9.2682371 20.82244681 -10.84565969 19.08098355 -14 16 C-15.60086627 12.79826746 -15.49917089 9.47422941 -15 6 C-11.05063221 -0.18734287 -7.01295931 -0.99849504 0 0 Z " fill="#FBCB07" transform="translate(106,118)"/>
<path d="M0 0 C4.32091122 2.4767285 7.2375483 6.21258452 9.6875 10.5 C9.6875 11.16 9.6875 11.82 9.6875 12.5 C0.85160012 12.07976947 -7.95558275 11.53363932 -16.75 10.5625 C-17.84042603 10.45059326 -17.84042603 10.45059326 -18.95288086 10.33642578 C-24.07459717 9.73790283 -24.07459717 9.73790283 -26.3125 7.5 C-25.23569498 6.36874978 -24.15074365 5.24525081 -23.0625 4.125 C-22.45921875 3.49851562 -21.8559375 2.87203125 -21.234375 2.2265625 C-15.40870099 -3.00707147 -7.03270898 -3.06241277 0 0 Z " fill="#FBFCFD" transform="translate(112.3125,91.5)"/>
<path d="M0 0 C3.40382054 1.90878753 5.68507048 3.49671074 8.41015625 6.3515625 C8.51257144 11.06266107 6.35084744 15.13266862 4.41015625 19.3515625 C0.45015625 19.3515625 -3.50984375 19.3515625 -7.58984375 19.3515625 C-10.03682041 14.98956063 -11.09253723 11.32462766 -11.58984375 6.3515625 C-10.21296672 5.12167235 -8.81248542 3.91816672 -7.40234375 2.7265625 C-6.62503906 2.05367187 -5.84773438 1.38078125 -5.046875 0.6875 C-2.58984375 -0.6484375 -2.58984375 -0.6484375 0 0 Z " fill="#F66394" transform="translate(96.58984375,178.6484375)"/>
<path d="M0 0 C8.58 0 17.16 0 26 0 C26 1.65 26 3.3 26 5 C22.25838897 5 18.71046443 4.48661829 15 4 C13.99740493 7.00778521 13.69685358 9.53820647 13.4375 12.6875 C13.293125 14.440625 13.14875 16.19375 13 18 C9.04 18 5.08 18 1 18 C0.67 12.06 0.34 6.12 0 0 Z " fill="#4779A2" transform="translate(68,220)"/>
<path d="M0 0 C-0.33 6.27 -0.66 12.54 -1 19 C-4.96 19 -8.92 19 -13 19 C-13.16276042 16.23307292 -13.32552083 13.46614583 -13.48828125 10.69921875 C-14.05123129 7.72976474 -14.57728046 6.7481124 -17 5 C-20.74849077 4.53143865 -21.76746204 4.84497469 -25 7 C-26 6 -26 6 -26.0625 3.4375 C-26.041875 2.633125 -26.02125 1.82875 -26 1 C-22.04169483 0.83265991 -18.08335144 0.66624177 -14.125 0.5 C-12.43310547 0.42845703 -12.43310547 0.42845703 -10.70703125 0.35546875 C-9.63066406 0.31035156 -8.55429688 0.26523438 -7.4453125 0.21875 C-5.95281982 0.1559082 -5.95281982 0.1559082 -4.43017578 0.09179688 C-2.95418617 0.0360432 -1.47704224 0 0 0 Z " fill="#477AA2" transform="translate(124,219)"/>
<path d="M0 0 C5.4939759 2.69879518 5.4939759 2.69879518 6.875 6.25 C6.91625 6.8275 6.9575 7.405 7 8 C3.20197185 9.1868838 -0.28329063 10.08490361 -4.25 10.4375 C-7.91732428 10.6077456 -7.91732428 10.6077456 -9.5625 12.5625 C-11 14 -11 14 -14.5625 14.25 C-18 14 -18 14 -20 13 C-19.92430022 9.8206091 -19.63231963 7.69110312 -17.4453125 5.30078125 C-11.66099915 0.34451276 -7.67415039 -0.85790655 0 0 Z " fill="#AEC1D0" transform="translate(22,171)"/>
<path d="M0 0 C4.2998846 2.23263239 7.46591883 4.84410688 10 9 C9.75 11.8125 9.75 11.8125 9 14 C6.36 14.33 3.72 14.66 1 15 C0.67 13.68 0.34 12.36 0 11 C-0.89203125 10.86722656 -1.7840625 10.73445312 -2.703125 10.59765625 C-4.45882812 10.33275391 -4.45882812 10.33275391 -6.25 10.0625 C-7.41015625 9.88847656 -8.5703125 9.71445313 -9.765625 9.53515625 C-12.23106961 9.1272264 -14.59424562 8.66098697 -17 8 C-16.63225772 5.53457287 -16.40922938 4.33064918 -14.43359375 2.734375 C-9.32327333 0.21421698 -5.70125733 -0.73564611 0 0 Z " fill="#AEC1D0" transform="translate(178,179)"/>
<path d="M0 0 C3.73487777 0.4979837 5.81237635 0.87491756 9 3 C8.45503269 6.81477116 6.88938827 8.52338148 4 11 C0.36409182 13.59707727 -3.69975333 13.62873643 -8 13 C-10.94619207 12.04377977 -13.59557435 10.96982289 -16 9 C-17.2265625 6.35546875 -17.2265625 6.35546875 -18 4 C-16.78441406 3.87882813 -15.56882813 3.75765625 -14.31640625 3.6328125 C-12.73171883 3.46402922 -11.1470861 3.29473184 -9.5625 3.125 C-8.76005859 3.04636719 -7.95761719 2.96773437 -7.13085938 2.88671875 C-5.07829006 2.66154237 -3.03706991 2.33777413 -1 2 C-0.67 1.34 -0.34 0.68 0 0 Z " fill="#A5B7C5" transform="translate(177,203)"/>
<path d="M0 0 C2.25 0.75 2.25 0.75 3.25 1.75 C4.57 1.75 5.89 1.75 7.25 1.75 C8.57 1.75 9.89 1.75 11.25 1.75 C11.58 2.08 11.91 2.41 12.25 2.75 C14.57817964 3.11760731 16.9118385 3.45241581 19.25 3.75 C18.63409328 6.52158023 17.90492602 8.26992542 15.58203125 9.97265625 C11.07912932 12.40265555 7.41970548 13.58084552 2.25 12.75 C-1.96438314 10.87694083 -5.05207108 9.05861673 -7.25 4.9375 C-7.415 4.215625 -7.58 3.49375 -7.75 2.75 C-3.45967742 -0.31451613 -3.45967742 -0.31451613 0 0 Z " fill="#A5B7C5" transform="translate(11.75,195.25)"/>
<path d="M0 0 C0.66 0 1.32 0 2 0 C2.37382813 0.804375 2.74765625 1.60875 3.1328125 2.4375 C4.84828692 5.3835649 4.84828692 5.3835649 8.6171875 5.8125 C10.03513894 5.89996242 11.45487227 5.96161817 12.875 6 C13.58269531 6.05027344 14.29039063 6.10054687 15.01953125 6.15234375 C19.58777798 6.36501818 22.34381929 5.752889 26 3 C28 5 28 5 28.3125 7.4375 C28 10 28 10 26.8203125 11.640625 C21.77837913 15.40584563 12.28732444 13.02725582 6.4375 12.1875 C1.56700623 11.43073005 1.56700623 11.43073005 -0.8203125 9.6171875 C-2.65537396 7.10157345 -2.32034693 5.0112611 -2 2 C-1.34 1.34 -0.68 0.68 0 0 Z " fill="#345066" transform="translate(85,149)"/>
<path d="M0 0 C3 0.4375 3 0.4375 4.9375 1.5 C6.65200281 4.62644629 5.75913137 7.05060619 5 10.4375 C3.9375 13.375 3.9375 13.375 3 15.4375 C1.56260487 15.46462066 0.12506137 15.48395067 -1.3125 15.5 C-2.51326172 15.51740234 -2.51326172 15.51740234 -3.73828125 15.53515625 C-6 15.4375 -6 15.4375 -9 14.4375 C-8.57316761 12.85125765 -8.13303842 11.2685902 -7.6875 9.6875 C-7.32205078 8.36492187 -7.32205078 8.36492187 -6.94921875 7.015625 C-5.45305081 2.95195898 -4.43258258 0.64641829 0 0 Z " fill="#4A7EA7" transform="translate(77,83.5625)"/>
<path d="M0 0 C2.72106694 2.72106694 2.60655572 4.84776311 3.125 8.625 C3.29257813 9.81351563 3.46015625 11.00203125 3.6328125 12.2265625 C3.75398437 13.14179687 3.87515625 14.05703125 4 15 C2.37509046 15.02698189 0.75005367 15.04638757 -0.875 15.0625 C-2.23238281 15.07990234 -2.23238281 15.07990234 -3.6171875 15.09765625 C-6 15 -6 15 -8 14 C-9.54481083 10.13797293 -9.38719918 6.06559138 -9 2 C-5.99533564 -0.75427566 -3.80464641 -1.70553115 0 0 Z " fill="#497CA5" transform="translate(137,91)"/>
<path d="M0 0 C2.54951033 1.34184754 4.58114404 2.4669106 6.375 4.75 C7.34245816 8.23284938 6.97469149 10.52766157 6 14 C4.15691612 16.26841093 2.52275976 17.36762604 0 19 C-1.32 19 -2.64 19 -4 19 C-3.67 15.04 -3.34 11.08 -3 7 C-2.34 7 -1.68 7 -1 7 C-0.67 4.69 -0.34 2.38 0 0 Z " fill="#4478A1" transform="translate(140,133)"/>
<path d="M0 0 C0 5.94 0 11.88 0 18 C-5 17 -5 17 -6.8125 15.5 C-8.61685797 11.70135165 -8.68893624 8.12604669 -8 4 C-5.41562018 0.21572955 -4.68280765 0 0 0 Z " fill="#4478A2" transform="translate(62,125)"/>
<path d="M0 0 C2.93797442 0.30847234 5.87532282 0.62160223 8.8125 0.9375 C10.06256836 1.06801758 10.06256836 1.06801758 11.33789062 1.20117188 C12.14033203 1.28818359 12.94277344 1.37519531 13.76953125 1.46484375 C14.50792236 1.543396 15.24631348 1.62194824 16.00708008 1.70288086 C18 2 18 2 21 3 C20.625 4.9375 20.625 4.9375 20 7 C16.81555378 8.59222311 13.46710728 7.90874024 10 7.6875 C9.26265625 7.65205078 8.5253125 7.61660156 7.765625 7.58007812 C2.24243805 7.24243805 2.24243805 7.24243805 0 5 C-0.125 2.375 -0.125 2.375 0 0 Z " fill="#B9CFE0" transform="translate(88,148)"/>
<path d="M0 0 C1.9375 1.0625 1.9375 1.0625 3 3 C2.6875 6.6875 2.6875 6.6875 2 10 C-5.40413793 11.33517241 -5.40413793 11.33517241 -8 9.875 C-9.34113399 7.36037377 -9.42180059 5.81200394 -9 3 C-6.73529086 -0.64869805 -4.03159541 -0.50394943 0 0 Z " fill="#477CA7" transform="translate(78,120)"/>
<path d="M0 0 C1.875 1.0625 1.875 1.0625 3 3 C2.8125 6.625 2.8125 6.625 2 10 C-0.79870027 11.39935013 -2.90498792 11.25265405 -6 11 C-7.9375 9.875 -7.9375 9.875 -9 8 C-8.875 4.9375 -8.875 4.9375 -8 2 C-4.76746204 -0.15502531 -3.74849077 -0.46856135 0 0 Z " fill="#477CA7" transform="translate(131,126)"/>
<path d="M0 0 C1.875 1.6875 1.875 1.6875 3 4 C2.75925978 7.37036311 2.41201979 8.58798021 0 11 C-3 11.3125 -3 11.3125 -6 11 C-8 8 -8 8 -7.75 4.375 C-7.5025 3.26125 -7.255 2.1475 -7 1 C-4.4254716 -0.2872642 -2.85291355 -0.34791629 0 0 Z " fill="#407096" transform="translate(52,180)"/>
<path d="M0 0 C3.5625 0.1875 3.5625 0.1875 5.5625 2.1875 C5.3125 5.75 5.3125 5.75 4.5625 9.1875 C1.79999964 10.56875018 -0.38481099 10.37829306 -3.4375 10.1875 C-4.0975 9.5275 -4.7575 8.8675 -5.4375 8.1875 C-4.74198718 0.25865385 -4.74198718 0.25865385 0 0 Z " fill="#407198" transform="translate(140.4375,184.8125)"/>
<path d="M0 0 C2.73469132 1.99558556 5.02086081 4.19943459 7.3125 6.6875 C2.80881609 7.27131088 -1.57860976 7.75013001 -6.125 7.625 C-9.73892273 7.27585972 -9.73892273 7.27585972 -11.6875 9.6875 C-11.14004953 6.00026006 -9.85926222 4.56423404 -6.9375 2.3125 C-3.1353714 -0.36457807 -3.1353714 -0.36457807 0 0 Z " fill="#DF5B88" transform="translate(96.6875,178.3125)"/>
<path d="M0 0 C0.33 0 0.66 0 1 0 C1.08636719 0.67546875 1.17273438 1.3509375 1.26171875 2.046875 C2.12445803 7.94664236 2.12445803 7.94664236 5.625 12.625 C6.40875 13.07875 7.1925 13.5325 8 14 C7.67 14.66 7.34 15.32 7 16 C5.05878789 15.23856331 3.12213883 14.46548643 1.1875 13.6875 C0.10855469 13.25824219 -0.97039062 12.82898438 -2.08203125 12.38671875 C-4.69144777 11.14663459 -6.17408984 10.18468549 -8 8 C-7.05125 7.4225 -6.1025 6.845 -5.125 6.25 C-2.23865902 4.17183449 -1.15904259 3.24531925 0 0 Z " fill="#436F92" transform="translate(151,192)"/>
<path d="M0 0 C2.375 -0.125 2.375 -0.125 5 0 C7 2 7 2 7.1875 4.5625 C7 7 7 7 6 8 C3 8.125 3 8.125 0 8 C-0.33 7.67 -0.66 7.34 -1 7 C-0.71269945 4.66055264 -0.38063221 2.3260857 0 0 Z " fill="#FFFBEF" transform="translate(101,124)"/>
<path d="M0 0 C0.61875 0.804375 1.2375 1.60875 1.875 2.4375 C3.74164041 5.03874519 3.74164041 5.03874519 6 6 C6 6.66 6 7.32 6 8 C2.7 8.66 -0.6 9.32 -4 10 C-3.34 8.68 -2.68 7.36 -2 6 C-1.31039038 4.00779443 -0.63920943 2.00894394 0 0 Z " fill="#436F92" transform="translate(38,188)"/>
<path d="M0 0 C-0.55429687 0.4125 -1.10859375 0.825 -1.6796875 1.25 C-7.00792612 5.49742153 -9.0493128 8.22635371 -10 15 C-10.33 15 -10.66 15 -11 15 C-11.41776675 8.94238206 -11.12264203 5.80974903 -7 1 C-4.00659831 -1.08631027 -3.56491056 -1.18830352 0 0 Z " fill="#3F586C" transform="translate(59,153)"/>
<path d="M0 0 C0.99 0.33 1.98 0.66 3 1 C2.21753906 1.73605469 1.43507813 2.47210938 0.62890625 3.23046875 C-0.39375456 4.21560072 -1.4158611 5.2013083 -2.4375 6.1875 C-2.95376953 6.67025391 -3.47003906 7.15300781 -4.00195312 7.65039062 C-7.05422078 10.62286043 -8.69288658 12.69253741 -9 17 C-8.34 17.33 -7.68 17.66 -7 18 C-7.99 18 -8.98 18 -10 18 C-10.4375 14.9375 -10.4375 14.9375 -10 11 C-7.94953113 8.34320969 -5.49030417 6.23573975 -3 4 C-1.96292646 2.69529458 -0.93718337 1.37821084 0 0 Z " fill="#3E5467" transform="translate(68,238)"/>
<path d="M0 0 C1.65 0.33 3.3 0.66 5 1 C4.6875 2.9375 4.6875 2.9375 4 5 C3.01 5.33 2.02 5.66 1 6 C0.34 5.67 -0.32 5.34 -1 5 C-0.67 3.35 -0.34 1.7 0 0 Z " fill="#43759D" transform="translate(103,227)"/>
<path d="M0 0 C1.65 0.33 3.3 0.66 5 1 C5 2.32 5 3.64 5 5 C3.125 5.625 3.125 5.625 1 6 C0.34 5.34 -0.32 4.68 -1 4 C-0.625 1.875 -0.625 1.875 0 0 Z " fill="#42749C" transform="translate(85,227)"/>
<path d="M0 0 C0.66 0.33 1.32 0.66 2 1 C-0.85276137 3.93200474 -3.65079784 6.64315404 -7 9 C-6.5047783 5.33535945 -5.9791794 3.29167646 -3 1 C-2.01 0.67 -1.02 0.34 0 0 Z " fill="#3F576B" transform="translate(46,172)"/>
<path d="M0 0 C2 2 2 2 2.265625 4.2421875 C2.26046875 5.11101562 2.2553125 5.97984375 2.25 6.875 C2.25515625 7.73867187 2.2603125 8.60234375 2.265625 9.4921875 C1.98890649 12.10473577 1.3185995 13.7500088 0 16 C-0.66 16 -1.32 16 -2 16 C-1.855625 15.443125 -1.71125 14.88625 -1.5625 14.3125 C-1.376875 13.549375 -1.19125 12.78625 -1 12 C-0.814375 11.236875 -0.62875 10.47375 -0.4375 9.6875 C0.0926994 6.4305608 0.0645877 3.29397289 0 0 Z " fill="#3E5669" transform="translate(140,158)"/>
</svg>
