<?xml version="1.0" encoding="UTF-8"?>
<svg version="1.1" xmlns="http://www.w3.org/2000/svg" width="48" height="48">
<path d="M0 0 C12.54 0 25.08 0 38 0 C39.60679587 6.42718346 40.2206398 9.82208548 40 16 C39.34 16 38.68 16 38 16 C38 22.6 38 29.2 38 36 C25.46 36 12.92 36 0 36 C0 29.4 0 22.8 0 16 C-0.66 16 -1.32 16 -2 16 C-2.2206398 9.82208548 -1.60679587 6.42718346 0 0 Z " fill="#CCCCCC" transform="translate(5,6)"/>
<path d="M0 0 C12.54 0 25.08 0 38 0 C40 8 40 8 40 16 C26.14 16 12.28 16 -2 16 C-2 8 -2 8 0 0 Z " fill="#C94E60" transform="translate(5,6)"/>
<path d="M0 0 C3.63 0 7.26 0 11 0 C11 5.61 11 11.22 11 17 C7.37 17 3.74 17 0 17 C0 11.39 0 5.78 0 0 Z " fill="#2C7AD4" transform="translate(27,25)"/>
<path d="M0 0 C12.54 0 25.08 0 38 0 C38 1.32 38 2.64 38 4 C25.46 4 12.92 4 0 4 C0 2.68 0 1.36 0 0 Z " fill="#BE2235" transform="translate(5,6)"/>
<path d="M0 0 C13.86 0 27.72 0 42 0 C42 0.99 42 1.98 42 3 C28.14 3 14.28 3 0 3 C0 2.01 0 1.02 0 0 Z " fill="#BE2235" transform="translate(3,19)"/>
<path d="M0 0 C3.96 0 7.92 0 12 0 C12 2.97 12 5.94 12 9 C8.04 9 4.08 9 0 9 C0 6.03 0 3.06 0 0 Z " fill="#2C7AD4" transform="translate(10,25)"/>
<path d="M0 0 C7.26 0 14.52 0 22 0 C22 1.32 22 2.64 22 4 C14.74 4 7.48 4 0 4 C0 2.68 0 1.36 0 0 Z " fill="#989898" transform="translate(5,38)"/>
<path d="M0 0 C3.63 0 7.26 0 11 0 C11 1.32 11 2.64 11 4 C7.37 4 3.74 4 0 4 C0 2.68 0 1.36 0 0 Z " fill="#1B5AB7" transform="translate(27,38)"/>
<path d="M0 0 C1.65 0 3.3 0 5 0 C5 1.32 5 2.64 5 4 C3.35 4 1.7 4 0 4 C0 2.68 0 1.36 0 0 Z " fill="#989898" transform="translate(38,38)"/>
</svg>
