<?xml version="1.0" encoding="UTF-8"?>
<svg version="1.1" xmlns="http://www.w3.org/2000/svg" width="512" height="512">
<path d="M0 0 C31.47195622 -0.93885213 64.40454093 10.27277446 88.07421875 31.16015625 C88.90308594 31.86914062 89.73195312 32.578125 90.5859375 33.30859375 C104.88964662 45.7942204 116.60267908 60.64409637 124.07421875 78.16015625 C124.07421875 78.82015625 124.07421875 79.48015625 124.07421875 80.16015625 C124.73421875 80.16015625 125.39421875 80.16015625 126.07421875 80.16015625 C126.31914062 79.15597656 126.5640625 78.15179688 126.81640625 77.1171875 C128.00989233 72.95879773 129.93566196 69.51207556 132.19921875 65.84765625 C132.79863281 64.86599487 132.79863281 64.86599487 133.41015625 63.86450195 C136.88846595 58.2693491 140.75089333 53.13448434 145.07421875 48.16015625 C145.78320312 47.33 146.4921875 46.49984375 147.22265625 45.64453125 C170.44462487 19.08185838 203.19657933 2.79183532 238.39453125 0.28515625 C277.36278419 -1.53260482 310.78916888 11.09851732 340.13671875 36.41015625 C363.19374671 57.72703115 379.84901267 90.22174487 381.23535156 121.83447266 C381.61509935 157.3497222 381.61509935 157.3497222 378.07421875 174.16015625 C377.87554199 175.12501953 377.67686523 176.08988281 377.47216797 177.08398438 C372.84595081 199.02646155 365.73743926 219.93403608 356.07421875 240.16015625 C355.75485352 240.83062988 355.43548828 241.50110352 355.10644531 242.19189453 C338.07804813 277.65763749 315.87304234 310.21017575 290.62255859 340.30761719 C288.41596972 342.94773014 286.2453417 345.6158024 284.07421875 348.28515625 C281.61375668 351.30105845 279.12402432 354.28196068 276.57421875 357.22265625 C274.12018675 359.86895013 274.12018675 359.86895013 273.07421875 362.16015625 C274.21624756 362.37784668 275.35827637 362.59553711 276.53491211 362.81982422 C284.08942409 364.50448544 291.37693773 367.13816329 298.703125 369.60546875 C300.30438764 370.14109103 301.90578455 370.67631207 303.50730896 371.21115112 C307.69577282 372.61110029 311.88240527 374.01644814 316.06866455 375.42297363 C320.35131258 376.86080337 324.63569119 378.29345695 328.91992188 379.7265625 C337.30637785 382.53273105 345.69090591 385.34461283 354.07421875 388.16015625 C354.07421875 388.82015625 354.07421875 389.48015625 354.07421875 390.16015625 C352.62081337 390.52431389 352.62081337 390.52431389 351.13804626 390.89582825 C304.64935656 399.88414312 304.64935656 399.88414312 267.26858521 424.59158325 C262.30464952 433.8781556 260.96557215 444.22733761 259.87304688 454.57519531 C258.83680887 463.21669366 255.61085785 471.19828427 252.57675171 479.30404663 C251.10163186 483.29553332 249.74803411 487.3266768 248.390625 491.359375 C247.9374548 492.69117792 247.48381956 494.02282277 247.02954102 495.35424805 C246.55665649 496.74317261 246.55665649 496.74317261 246.07421875 498.16015625 C243.3658681 495.4518056 242.62394291 492.33435142 241.46044922 488.77294922 C241.20656433 488.01187866 240.95267944 487.25080811 240.69110107 486.4666748 C239.8521679 483.94708548 239.02177455 481.4247674 238.19140625 478.90234375 C237.61186114 477.15624931 237.03178639 475.41033058 236.45120239 473.6645813 C234.92358998 469.06646216 233.40319968 464.46598611 231.88427734 459.86499023 C230.33343812 455.17157575 228.77581333 450.48041497 227.21875 445.7890625 C224.16390986 436.58162592 221.11669108 427.37168635 218.07421875 418.16015625 C214.40801759 421.2752906 210.75335276 424.38249491 207.27734375 427.7109375 C206.63450439 428.32219482 205.99166504 428.93345215 205.3293457 429.56323242 C204.66765381 430.19334229 204.00596191 430.82345215 203.32421875 431.47265625 C197.9777196 436.5291258 192.54126269 441.33631767 186.78125 445.921875 C183.59773236 448.55413418 180.58798008 451.33709471 177.57421875 454.16015625 C172.8269765 458.60038372 167.96033251 462.80542948 162.890625 466.87890625 C159.72188359 469.44554284 156.61542899 472.07816844 153.51171875 474.72265625 C148.87511451 478.66295307 144.20236236 482.54464327 139.4140625 486.30078125 C137.81699368 487.56990439 136.24727469 488.87402559 134.703125 490.20703125 C133.55650391 491.17382812 133.55650391 491.17382812 132.38671875 492.16015625 C131.39091797 493.02640625 131.39091797 493.02640625 130.375 493.91015625 C127.03111174 495.72686974 124.8298222 495.65335713 121.07421875 495.16015625 C118.66429327 493.69506508 116.79962295 492.35432305 114.69921875 490.53515625 C114.10689453 490.04587646 113.51457031 489.55659668 112.90429688 489.05249023 C111.62336601 487.99207195 110.34848393 486.92431329 109.07910156 485.85009766 C107.02971036 484.12263956 104.95839058 482.42545265 102.87890625 480.734375 C94.39712463 473.82608413 86.04903345 466.77010286 77.77148438 459.61914062 C76.06217201 458.14980077 74.34326676 456.69251753 72.62109375 455.23828125 C65.70461059 449.38482789 58.9793217 443.37303643 52.39868164 437.14306641 C48.67985439 433.62661375 44.88327972 430.22316954 41.02148438 426.86450195 C29.90340034 417.13339054 19.4650775 406.65473724 9.01171875 396.22265625 C8.12932022 395.34414001 8.12932022 395.34414001 7.22909546 394.44787598 C1.51564212 388.75425167 -4.15634361 383.07932931 -9.39331055 376.93774414 C-12.08990319 373.80983414 -14.9605327 370.84454495 -17.80078125 367.84765625 C-22.63756204 362.70435484 -27.25819293 357.4708076 -31.6640625 351.94921875 C-33.79477958 349.32170235 -35.98899122 346.76971607 -38.21289062 344.22167969 C-43.83123875 337.77964288 -49.06659345 331.1412412 -54.09301758 324.22583008 C-56.52250594 320.66039329 -56.52250594 320.66039329 -59.92578125 318.16015625 C-60.19132812 319.44792969 -60.456875 320.73570312 -60.73046875 322.0625 C-61.84386761 327.07279486 -63.38249951 331.8734641 -65.05078125 336.72265625 C-65.32792969 337.54056641 -65.60507813 338.35847656 -65.890625 339.20117188 C-66.56483262 341.18892193 -67.24470329 343.17474974 -67.92578125 345.16015625 C-68.58578125 345.16015625 -69.24578125 345.16015625 -69.92578125 345.16015625 C-71.90536421 339.41407308 -73.88075226 333.66657146 -75.85229492 327.91772461 C-76.52334814 325.9629033 -77.19553881 324.00847207 -77.86889648 322.05444336 C-78.83748058 319.24304762 -79.80194338 316.43026688 -80.765625 313.6171875 C-81.06669662 312.74616898 -81.36776825 311.87515045 -81.67796326 310.97773743 C-83.01535894 307.06182536 -84.27583501 303.26179437 -84.92578125 299.16015625 C-85.50884033 299.01537842 -86.09189941 298.87060059 -86.69262695 298.72143555 C-96.00246898 296.30271495 -105.03295848 293.12361217 -114.11328125 289.97265625 C-115.7492372 289.40787931 -117.38530414 288.84342372 -119.02148438 288.27929688 C-122.99087155 286.90994878 -126.95873489 285.53627028 -130.92578125 284.16015625 C-130.92578125 283.50015625 -130.92578125 282.84015625 -130.92578125 282.16015625 C-118.05578125 277.87015625 -105.18578125 273.58015625 -91.92578125 269.16015625 C-94.56578125 263.88015625 -97.20578125 258.60015625 -99.92578125 253.16015625 C-114.22234194 224.355661 -125.03530675 195.08717442 -129.92578125 163.16015625 C-130.02890625 162.49693359 -130.13203125 161.83371094 -130.23828125 161.15039062 C-132.66461398 142.9355642 -133.0337267 120.83955752 -127.92578125 103.16015625 C-127.6947168 102.34869141 -127.46365234 101.53722656 -127.22558594 100.70117188 C-116.30383686 63.41610647 -93.70184718 34.31462613 -59.625 15.3203125 C-40.83401344 5.41549029 -21.10720155 1.15540089 0 0 Z " fill="#FE5440" transform="translate(130.92578125,6.83984375)"/>
<path d="M0 0 C38.43894145 0.19413607 72.96463953 13.09892642 100.59375 40.265625 C128.12681471 68.29255635 138.03732257 103.76698745 137.82723999 142.05343628 C137.72295553 153.00527977 136.85436819 163.53327414 134.59375 174.265625 C134.39507324 175.23048828 134.19639648 176.19535156 133.99169922 177.18945312 C129.36548206 199.1319303 122.25697051 220.03950483 112.59375 240.265625 C112.27438477 240.93609863 111.95501953 241.60657227 111.62597656 242.29736328 C94.59757938 277.76310624 72.39257359 310.3156445 47.14208984 340.41308594 C44.93550097 343.05319889 42.76487295 345.72127115 40.59375 348.390625 C39.26106329 350.01615535 37.92779683 351.64121069 36.59375 353.265625 C35.99691406 353.99910156 35.40007812 354.73257812 34.78515625 355.48828125 C33.4331008 357.11917787 32.02051241 358.69966626 30.59375 360.265625 C29.93375 360.265625 29.27375 360.265625 28.59375 360.265625 C27.38872901 357.02185326 26.20786218 353.76979811 25.03125 350.515625 C24.68900391 349.59523438 24.34675781 348.67484375 23.99414062 347.7265625 C23.67509766 346.83710938 23.35605469 345.94765625 23.02734375 345.03125 C22.57959595 343.80583496 22.57959595 343.80583496 22.12280273 342.55566406 C21.16813387 338.42331797 22.48978678 336.43571116 24.67578125 332.859375 C25.58188153 331.49209509 26.49234939 330.12770347 27.40625 328.765625 C43.630408 304.08838763 57.82832993 278.3623218 69.59375 251.265625 C69.95275391 250.44771484 70.31175781 249.62980469 70.68164062 248.78710938 C75.49639754 237.71224786 79.29248073 226.33978875 82.90625 214.828125 C83.11943878 214.15152832 83.33262756 213.47493164 83.55227661 212.77783203 C87.58547703 199.91287865 90.632651 187.02912538 92.71875 173.703125 C92.88761719 172.66994141 93.05648437 171.63675781 93.23046875 170.57226562 C96.73704088 148.49742768 97.77922368 125.12028233 92.59375 103.265625 C92.29743074 101.84183903 92.0045569 100.41733236 91.71484375 98.9921875 C86.44391757 73.87429449 74.13618312 51.86745905 56.59375 33.265625 C55.98144531 32.58886719 55.36914062 31.91210938 54.73828125 31.21484375 C39.12166437 14.59929616 17.84754036 5.65497984 -4.40625 2.265625 C-2.40625 0.265625 -2.40625 0.265625 0 0 Z " fill="#E0230D" transform="translate(374.40625,6.734375)"/>
<path d="M0 0 C2.71476942 1.35738471 2.89177682 3.0787694 3.82426453 5.83958435 C4.16177483 6.87672325 4.16177483 6.87672325 4.50610352 7.93481445 C4.74862854 8.6600531 4.99115356 9.38529175 5.24102783 10.13250732 C6.04420888 12.5404303 6.836614 14.95175568 7.62890625 17.36328125 C8.18354727 19.03399103 8.73880745 20.70449537 9.29466248 22.37480164 C10.75920721 26.78187911 12.2144582 31.1919745 13.66809082 35.60266113 C14.85507604 39.19893312 16.0487093 42.79298085 17.24270725 46.38692951 C18.66544233 50.66994002 20.08505043 54.9539843 21.50390625 59.23828125 C21.77503298 60.05657221 22.04615971 60.87486317 22.3255024 61.71795082 C23.0931122 64.03708384 23.85858448 66.35691022 24.62329102 68.67700195 C24.85032211 69.36235519 25.07735321 70.04770844 25.31126404 70.75382996 C26.31760772 73.81430468 27.28387489 76.85738821 28 80 C29.14202881 80.21769043 30.28405762 80.43538086 31.46069336 80.65966797 C39.01520534 82.34432919 46.30271898 84.97800704 53.62890625 87.4453125 C55.23016889 87.98093478 56.8315658 88.51615582 58.43309021 89.05099487 C62.62155407 90.45094404 66.80818652 91.85629189 70.9944458 93.26281738 C75.27709383 94.70064712 79.56147244 96.1333007 83.84570312 97.56640625 C92.2321591 100.3725748 100.61668716 103.18445658 109 106 C109 106.66 109 107.32 109 108 C108.03106308 108.24277176 107.06212616 108.48554352 106.06382751 108.735672 C59.57513781 117.72398687 59.57513781 117.72398687 22.19436646 142.431427 C17.23043077 151.71799935 15.8913534 162.06718136 14.79882812 172.41503906 C13.76259012 181.05653741 10.5366391 189.03812802 7.50253296 197.14389038 C6.02741311 201.13537707 4.67381536 205.16652055 3.31640625 209.19921875 C2.86323605 210.53102167 2.40960081 211.86266652 1.95532227 213.1940918 C1.64006592 214.1200415 1.32480957 215.04599121 1 216 C-1.70156915 213.29843085 -2.44854463 210.19571417 -3.61376953 206.64453125 C-3.86765442 205.88667328 -4.12153931 205.12881531 -4.38311768 204.34799194 C-5.22222854 201.83807921 -6.05265329 199.32538637 -6.8828125 196.8125 C-7.46244308 195.07122479 -8.04251683 193.33009705 -8.62301636 191.58911133 C-9.83882306 187.93856078 -11.05058128 184.28669996 -12.25927734 180.63378906 C-13.81122972 175.94393717 -15.37107755 171.25676018 -16.93368721 166.57044983 C-18.13194508 162.97513322 -19.3270763 159.37878387 -20.52114487 155.78207397 C-21.09537378 154.05300891 -21.67033722 152.32418762 -22.24603653 150.59561157 C-23.04872624 148.18322146 -23.84745563 145.76955757 -24.64501953 143.35546875 C-24.88499664 142.63644379 -25.12497375 141.91741882 -25.3722229 141.17660522 C-27 136.22895562 -27 136.22895562 -27 134 C-27.6064888 133.84520676 -28.2129776 133.69041351 -28.83784485 133.53092957 C-37.40476095 131.27531038 -45.7749447 128.49374671 -54.16796875 125.67578125 C-55.69915598 125.16413925 -57.23043302 124.65276594 -58.76179504 124.14164734 C-62.75578933 122.80779312 -66.74856809 121.47033728 -70.74108887 120.13208008 C-74.82990773 118.76227169 -78.91988756 117.39593881 -83.00976562 116.02929688 C-91.00763878 113.35622925 -99.00422882 110.67934855 -107 108 C-107 107.34 -107 106.68 -107 106 C-104.8671875 105.2890625 -102.734375 104.578125 -100.6015625 103.8671875 C-99.91584671 103.63857025 -99.23013092 103.409953 -98.52363586 103.17440796 C-94.62355009 101.87418965 -90.72322723 100.57468924 -86.82250977 99.27636719 C-78.64176643 96.55261779 -70.46335547 93.82231635 -62.29168701 91.07144165 C-58.44603212 89.77725322 -54.59925538 88.48641834 -50.75238037 87.19586182 C-48.87622797 86.56543328 -47.00061598 85.93339417 -45.12554932 85.29974365 C-42.48999768 84.40929372 -39.85264606 83.52438135 -37.21484375 82.640625 C-36.42580154 82.37244965 -35.63675934 82.10427429 -34.82380676 81.82797241 C-31.76817544 80.8091106 -29.24394164 80 -26 80 C-25.81701859 78.47608643 -25.81701859 78.47608643 -25.63034058 76.92138672 C-25.02770173 73.17233413 -24.11630725 69.85405812 -22.91455078 66.2578125 C-22.70464508 65.62429871 -22.49473938 64.99078491 -22.2784729 64.33807373 C-21.58991598 62.26505384 -20.89282203 60.19502302 -20.1953125 58.125 C-19.71024452 56.67218415 -19.22562261 55.2192193 -18.74142456 53.76611328 C-17.72797593 50.72888593 -16.71052952 47.69303869 -15.68994141 44.65820312 C-14.38708469 40.78359224 -13.09213068 36.90639926 -11.79991341 33.02822876 C-10.80027638 30.02986369 -9.79750521 27.03255454 -8.79369736 24.0355835 C-8.31539044 22.6069912 -7.83779095 21.17816182 -7.36093521 19.74908447 C-6.69170293 17.74576385 -6.01852125 15.74381294 -5.34423828 13.7421875 C-4.96308868 12.6063623 -4.58193909 11.47053711 -4.1892395 10.30029297 C-2.92532579 6.79276944 -1.50012442 3.41215648 0 0 Z " fill="#FEE5A1" transform="translate(376,289)"/>
<path d="M0 0 C3.40097492 2.67339293 4.34252867 6.22881589 5.61962891 10.19360352 C5.86229996 10.9223468 6.10497101 11.65109009 6.35499573 12.4019165 C7.15400048 14.80819852 7.94023869 17.21845369 8.7265625 19.62890625 C9.27955593 21.30162025 9.83339043 22.97405641 10.38803101 24.64622498 C11.84547049 29.04710868 13.29232816 33.45139839 14.73675537 37.85656738 C16.49524635 43.21360297 18.26513356 48.56688118 20.03438377 53.92037106 C21.41041026 58.08425272 22.78435347 62.24878068 24.15200806 66.41542053 C24.40360184 67.18015182 24.65519562 67.94488312 24.91441345 68.73278809 C25.38495481 70.16308641 25.8543422 71.59376509 26.32237244 73.02488708 C27.49096372 76.5804859 27.49096372 76.5804859 29 80 C31.41738787 80.96302882 33.80264599 81.81049264 36.27368164 82.61376953 C37.03460617 82.86765442 37.7955307 83.12153931 38.57951355 83.38311768 C41.10408961 84.22347864 43.63204686 85.05314779 46.16015625 85.8828125 C47.90772294 86.46222747 49.65507054 87.04230363 51.40220642 87.62301636 C56.0081322 89.15195197 60.61698999 90.67185611 65.22650146 92.18994141 C69.92688229 93.73970648 74.62445451 95.29793528 79.32226562 96.85546875 C88.54543758 99.91196796 97.77172698 102.95893986 107 106 C107 106.66 107 107.32 107 108 C87.32769792 114.74599285 67.65213462 121.48305118 47.93005371 128.08239746 C46.35280546 128.6104239 44.77590001 129.1394754 43.19934082 129.66955566 C41.01020346 130.40515508 38.81978472 131.13679279 36.62890625 131.8671875 C34.7737439 132.48762939 34.7737439 132.48762939 32.88110352 133.12060547 C30 134 30 134 28 134 C27.84185318 134.61827164 27.68370636 135.23654327 27.52076721 135.87355042 C25.35612142 144.0880521 22.6967115 152.11380159 19.96484375 160.15234375 C19.48047805 161.5842883 18.99631536 163.01630152 18.51234436 164.44837952 C17.50502289 167.42666465 16.49542825 170.40416617 15.48413086 173.38110352 C14.18988373 177.19149314 12.90120191 181.00373781 11.61415768 184.81656551 C10.61856654 187.7641008 9.62018471 190.71068482 8.62094307 193.65698433 C8.14447501 195.06289094 7.66884276 196.46908109 7.19407463 197.87556267 C6.53185734 199.83589823 5.86591749 201.79493008 5.19897461 203.75366211 C4.82163681 204.86631943 4.44429901 205.97897675 4.05552673 207.12535095 C3.17269089 209.52968912 2.20780129 211.74615976 1 214 C-1.16306102 210.75540847 -2.14447191 207.90631041 -3.36328125 204.203125 C-3.59180283 203.51340607 -3.8203244 202.82368713 -4.05577087 202.11306763 C-4.81225957 199.82675617 -5.56241038 197.53841804 -6.3125 195.25 C-6.83842261 193.655615 -7.36479715 192.06137901 -7.89160156 190.46728516 C-8.72176302 187.95495197 -9.55153072 185.44249483 -10.37960815 182.92947388 C-12.46104502 176.61551835 -14.56706592 170.31008344 -16.68359375 164.0078125 C-17.28545093 162.21323309 -17.88725818 160.41863694 -18.48901367 158.62402344 C-19.36742202 156.00446098 -20.24657743 153.38516367 -21.12832642 150.76672363 C-21.94768041 148.3323751 -22.76331228 145.89680914 -23.578125 143.4609375 C-23.82441147 142.73238556 -24.07069794 142.00383362 -24.32444763 141.25320435 C-26 136.2278016 -26 136.2278016 -26 134 C-27.17199951 133.77183594 -28.34399902 133.54367188 -29.55151367 133.30859375 C-36.579981 131.74159905 -43.35782825 129.35124648 -50.17578125 127.0625 C-51.63296959 126.57659736 -53.0902621 126.09100703 -54.5476532 125.60571289 C-57.5852135 124.59316305 -60.62172526 123.57754802 -63.6574707 122.55957031 C-67.543859 121.25651541 -71.43244674 119.96017519 -75.32178974 118.66596985 C-78.32427664 117.6662551 -81.32575764 116.66354911 -84.32692528 115.65988159 C-85.76075828 115.18065717 -87.19485971 114.70223508 -88.62923622 114.22463989 C-90.63053732 113.55766337 -92.6304923 112.88679722 -94.63012695 112.21484375 C-95.76658157 111.83448975 -96.90303619 111.45413574 -98.07392883 111.06225586 C-100.50169859 110.18089908 -102.72956306 109.22115384 -105 108 C-105 107.34 -105 106.68 -105 106 C-85.32769792 99.25400715 -65.65213462 92.51694882 -45.93005371 85.91760254 C-44.35280546 85.3895761 -42.77590001 84.8605246 -41.19934082 84.33044434 C-39.01020346 83.59484492 -36.81978472 82.86320721 -34.62890625 82.1328125 C-33.39213135 81.71918457 -32.15535645 81.30555664 -30.88110352 80.87939453 C-28 80 -28 80 -26 80 C-25.89220215 79.18313721 -25.7844043 78.36627441 -25.67333984 77.5246582 C-24.88284842 73.38675946 -23.6146777 69.57497827 -22.2265625 65.60546875 C-21.9466748 64.79229187 -21.66678711 63.97911499 -21.37841797 63.14129639 C-20.77686695 61.39492065 -20.17322487 59.64926404 -19.56768799 57.90426636 C-17.97325003 53.30919837 -16.3938495 48.70896004 -14.8125 44.109375 C-14.33268173 42.71579018 -14.33268173 42.71579018 -13.84317017 41.29405212 C-10.71358207 32.19405937 -7.65810722 23.07003275 -4.625 13.9375 C-4.26743622 12.8617421 -4.26743622 12.8617421 -3.90264893 11.76425171 C-2.59962249 7.84354331 -1.29866325 3.92215625 0 0 Z " fill="#FFE5A1" transform="translate(169,75)"/>
<path d="M0 0 C2.12297541 3.18446311 3.23283299 6.29157042 4.41430664 9.88647461 C4.64707809 10.5827446 4.87984955 11.27901459 5.11967468 11.99638367 C5.88753005 14.29694329 6.64891945 16.59958646 7.41015625 18.90234375 C7.94263816 20.50284778 8.47547497 22.10323378 9.00865173 23.70350647 C10.12512789 27.05753745 11.23865063 30.41252889 12.34985352 33.76831055 C13.773744 38.06825033 15.20282666 42.36644046 16.63385868 46.66400814 C17.73412335 49.96896127 18.83268804 53.27447723 19.93063164 56.5802021 C20.4570388 58.16511804 20.98372598 59.749941 21.51069832 61.33466911 C22.24706139 63.55064071 22.98139196 65.76727498 23.71508789 67.98413086 C23.93276825 68.63828979 24.15044861 69.29244873 24.37472534 69.96643066 C25.36192114 72.95614359 26.29764252 75.92956759 27 79 C28.14202881 79.21769043 29.28405762 79.43538086 30.46069336 79.65966797 C38.01520534 81.34432919 45.30271898 83.97800704 52.62890625 86.4453125 C54.23016889 86.98093478 55.8315658 87.51615582 57.43309021 88.05099487 C61.62155407 89.45094404 65.80818652 90.85629189 69.9944458 92.26281738 C74.27709383 93.70064712 78.56147244 95.1333007 82.84570312 96.56640625 C91.2321591 99.3725748 99.61668716 102.18445658 108 105 C108 105.66 108 106.32 108 107 C107.03106308 107.24277176 106.06212616 107.48554352 105.06382751 107.735672 C58.54645517 116.72961001 58.54645517 116.72961001 21.16870117 141.48275757 C16.19888504 150.78468637 14.81020165 161.13834226 13.75146484 171.50976562 C12.79836559 179.81679362 9.79636535 187.48063738 6.93078613 195.28738403 C5.57180046 199.04389136 4.33550929 202.83894222 3.09765625 206.63671875 C2.69039307 207.87123779 2.28312988 209.10575684 1.86352539 210.37768555 C1.57856201 211.24304932 1.29359863 212.10841309 1 213 C0.67 213 0.34 213 0 213 C0 142.71 0 72.42 0 0 Z " fill="#FED663" transform="translate(377,290)"/>
<path d="M0 0 C3.24618526 3.24618526 4.25769385 5.96544421 5.61962891 10.19360352 C5.98363548 11.28671844 5.98363548 11.28671844 6.35499573 12.4019165 C7.15400048 14.80819852 7.94023869 17.21845369 8.7265625 19.62890625 C9.27955593 21.30162025 9.83339043 22.97405641 10.38803101 24.64622498 C11.84547049 29.04710868 13.29232816 33.45139839 14.73675537 37.85656738 C16.49524635 43.21360297 18.26513356 48.56688118 20.03438377 53.92037106 C21.41041026 58.08425272 22.78435347 62.24878068 24.15200806 66.41542053 C24.40360184 67.18015182 24.65519562 67.94488312 24.91441345 68.73278809 C25.38495481 70.16308641 25.8543422 71.59376509 26.32237244 73.02488708 C27.49096372 76.5804859 27.49096372 76.5804859 29 80 C31.41738787 80.96302882 33.80264599 81.81049264 36.27368164 82.61376953 C37.03460617 82.86765442 37.7955307 83.12153931 38.57951355 83.38311768 C41.10408961 84.22347864 43.63204686 85.05314779 46.16015625 85.8828125 C47.90772294 86.46222747 49.65507054 87.04230363 51.40220642 87.62301636 C56.0081322 89.15195197 60.61698999 90.67185611 65.22650146 92.18994141 C69.92688229 93.73970648 74.62445451 95.29793528 79.32226562 96.85546875 C88.54543758 99.91196796 97.77172698 102.95893986 107 106 C107 106.66 107 107.32 107 108 C87.32769792 114.74599285 67.65213462 121.48305118 47.93005371 128.08239746 C46.35280546 128.6104239 44.77590001 129.1394754 43.19934082 129.66955566 C41.01020346 130.40515508 38.81978472 131.13679279 36.62890625 131.8671875 C34.7737439 132.48762939 34.7737439 132.48762939 32.88110352 133.12060547 C30 134 30 134 28 134 C27.84185318 134.61786377 27.68370636 135.23572754 27.52076721 135.87231445 C25.35258129 144.09729845 22.69488965 152.1365351 19.96484375 160.1875 C19.48052355 161.62185565 18.99635997 163.05626419 18.51234436 164.49072266 C17.50510871 167.47323229 16.49545516 170.45490956 15.48413086 173.43603516 C14.18883497 177.2551455 12.90056822 181.07658595 11.61415768 184.8986969 C10.61954949 187.85081433 9.62085048 190.80153529 8.62094307 193.75186157 C8.14393574 195.16120411 7.66830046 196.57101182 7.19407463 197.98129272 C6.5332609 199.94471787 5.86685793 201.90615783 5.19897461 203.8671875 C4.82163681 204.98206543 4.44429901 206.09694336 4.05552673 207.24560547 C3 210 3 210 1 213 C0.67 142.71 0.34 72.42 0 0 Z " fill="#FFD663" transform="translate(169,75)"/>
<path d="M0 0 C2 1 2 1 2.77200317 2.69454956 C3.13840408 3.79683395 3.13840408 3.79683395 3.51220703 4.92138672 C3.7923465 5.75249969 4.07248596 6.58361267 4.3611145 7.43991089 C4.65702484 8.34403717 4.95293518 9.24816345 5.2578125 10.1796875 C5.56572723 11.10339142 5.87364197 12.02709534 6.19088745 12.97879028 C6.84161204 14.93633425 7.48865398 16.8951056 8.13232422 18.85498047 C9.11949105 21.8582401 10.11932238 24.85705321 11.12109375 27.85546875 C11.7507583 29.75495713 12.37968904 31.65468896 13.0078125 33.5546875 C13.3077713 34.45476532 13.6077301 35.35484314 13.91677856 36.28219604 C14.19061371 37.11961334 14.46444885 37.95703064 14.74658203 38.81982422 C14.98925812 39.55627167 15.2319342 40.29271912 15.48196411 41.05148315 C16 43 16 43 16 46 C16.59538574 46.15202881 17.19077148 46.30405762 17.80419922 46.46069336 C25.93293165 48.60210111 33.90062484 51.1650683 41.87402344 53.81616211 C44.15318366 54.57184463 46.43585927 55.31622126 48.71875 56.06054688 C50.16949781 56.54098181 51.62002731 57.0220766 53.0703125 57.50390625 C53.75247833 57.72478409 54.43464417 57.94566193 55.13748169 58.17323303 C59.88567657 59.77135314 59.88567657 59.77135314 61 62 C60.45986771 62.15683258 59.91973541 62.31366516 59.36323547 62.47525024 C53.71176989 64.12847757 48.08897511 65.86075773 42.47583008 67.63964844 C40.38212199 68.29182146 38.28207557 68.92401318 36.17602539 69.53515625 C23.783701 72.48024658 23.783701 72.48024658 14.57763672 80.35083008 C13.28535033 83.93063121 12.54455013 87.23994576 12 91 C11.55937987 92.52792529 11.09528591 94.04956641 10.59375 95.55859375 C10.2255233 96.85052962 9.86086344 98.14348811 9.5 99.4375 C7.22844041 107.37373263 4.67168369 115.18958853 2 123 C1.34 123 0.68 123 0 123 C-1.97958296 117.25391683 -3.95497101 111.50641521 -5.92651367 105.75756836 C-6.59756689 103.80274705 -7.26975756 101.84831582 -7.94311523 99.89428711 C-8.91169933 97.08289137 -9.87616213 94.27011063 -10.83984375 91.45703125 C-11.14091537 90.58601273 -11.441987 89.7149942 -11.75218201 88.81758118 C-13.08957769 84.90166911 -14.35005376 81.10163812 -15 77 C-15.58305908 76.85522217 -16.16611816 76.71044434 -16.7668457 76.5612793 C-26.07668773 74.1425587 -35.10717723 70.96345592 -44.1875 67.8125 C-45.82345595 67.24772306 -47.45952289 66.68326747 -49.09570312 66.11914062 C-53.0650903 64.74979253 -57.03295364 63.37611403 -61 62 C-61 61.34 -61 60.68 -61 60 C-55.57462573 58.183269 -50.14858234 56.36855538 -44.72192383 54.55566406 C-42.87799091 53.93934909 -41.03423828 53.32249443 -39.19067383 52.70507812 C-36.53254266 51.81496669 -33.87375765 50.92683262 -31.21484375 50.0390625 C-30.39789536 49.76502594 -29.58094696 49.49098938 -28.73924255 49.20864868 C-27.95896194 48.94852997 -27.17868134 48.68841125 -26.37475586 48.42041016 C-25.63204941 48.16425934 -24.88934296 47.90810852 -24.12413025 47.64419556 C-22 47 -22 47 -18.171875 46.4375 C-14.51000214 44.77793201 -14.28900379 44.21340208 -12.82836914 40.64208984 C-12.20130033 38.75788159 -11.60537864 36.86312111 -11.03515625 34.9609375 C-10.71212021 33.96494537 -10.38908417 32.96895325 -10.05625916 31.94277954 C-9.03124903 28.76144062 -8.04663923 25.56919085 -7.0625 22.375 C-6.37436915 20.21530789 -5.68364428 18.05644046 -4.99023438 15.8984375 C-3.29661329 10.60815704 -1.63598035 5.30836986 0 0 Z " fill="#FFE6A1" transform="translate(61,229)"/>
<path d="M0 0 C2 1 2 1 2.77200317 2.69454956 C3.01627045 3.42940582 3.26053772 4.16426208 3.51220703 4.92138672 C3.7923465 5.75249969 4.07248596 6.58361267 4.3611145 7.43991089 C4.65702484 8.34403717 4.95293518 9.24816345 5.2578125 10.1796875 C5.56572723 11.10339142 5.87364197 12.02709534 6.19088745 12.97879028 C6.84161204 14.93633425 7.48865398 16.8951056 8.13232422 18.85498047 C9.11949105 21.8582401 10.11932238 24.85705321 11.12109375 27.85546875 C11.7507583 29.75495713 12.37968904 31.65468896 13.0078125 33.5546875 C13.4577507 34.90480423 13.4577507 34.90480423 13.91677856 36.28219604 C14.19061371 37.11961334 14.46444885 37.95703064 14.74658203 38.81982422 C14.98925812 39.55627167 15.2319342 40.29271912 15.48196411 41.05148315 C16 43 16 43 16 46 C16.59538574 46.15202881 17.19077148 46.30405762 17.80419922 46.46069336 C25.93293165 48.60210111 33.90062484 51.1650683 41.87402344 53.81616211 C44.15318366 54.57184463 46.43585927 55.31622126 48.71875 56.06054688 C50.16949781 56.54098181 51.62002731 57.0220766 53.0703125 57.50390625 C53.75247833 57.72478409 54.43464417 57.94566193 55.13748169 58.17323303 C59.88567657 59.77135314 59.88567657 59.77135314 61 62 C60.45986771 62.15683258 59.91973541 62.31366516 59.36323547 62.47525024 C53.71176989 64.12847757 48.08897511 65.86075773 42.47583008 67.63964844 C40.38212199 68.29182146 38.28207557 68.92401318 36.17602539 69.53515625 C23.783701 72.48024658 23.783701 72.48024658 14.57763672 80.35083008 C13.28535033 83.93063121 12.54455013 87.23994576 12 91 C11.55937987 92.52792529 11.09528591 94.04956641 10.59375 95.55859375 C10.2255233 96.85052962 9.86086344 98.14348811 9.5 99.4375 C7.22844041 107.37373263 4.67168369 115.18958853 2 123 C1.67 123 1.34 123 1 123 C0.505 62.115 0.505 62.115 0 0 Z " fill="#FFD563" transform="translate(61,229)"/>
<path d="M0 0 C4.3177458 0.50797009 8.03302114 1.19682779 12 3 C7.58179189 8.34069112 2.87903463 13.14972275 -2.1875 17.875 C-2.93999023 18.58043945 -3.69248047 19.28587891 -4.46777344 20.01269531 C-9.27613723 24.48717358 -14.18433564 28.71301799 -19.328125 32.796875 C-22.50259789 35.41442282 -25.49830427 38.18799111 -28.5 41 C-33.24721845 45.44025022 -38.11388892 49.64527538 -43.18359375 53.71875 C-46.35235306 56.28540109 -49.45835762 58.91849895 -52.5625 61.5625 C-56.56773257 64.95610191 -60.57332119 68.34943565 -64.625 71.6875 C-65.40101563 72.33074219 -66.17703125 72.97398437 -66.9765625 73.63671875 C-69 75 -69 75 -72 75 C-63.68047644 66.50715303 -63.68047644 66.50715303 -59.375 62.875 C-50.58396122 55.3221357 -42.2694512 46.87772119 -34.80078125 38.01953125 C-32.3137397 35.23037619 -29.65765341 32.62569685 -27 30 C-23.12496426 26.16704556 -19.38977207 22.29452223 -15.85546875 18.140625 C-12.92327477 14.7577991 -9.86727502 11.48832937 -6.81811523 8.2109375 C-4.38199697 5.57569456 -2.0866721 2.92134093 0 0 Z " fill="#E0240E" transform="translate(337,420)"/>
</svg>
